G04 #@! TF.GenerationSoftware,KiCad,Pcbnew,8.0.8*
G04 #@! TF.CreationDate,2025-03-22T22:47:56+00:00*
G04 #@! TF.ProjectId,RPi-flex_PCB04,5250692d-666c-4657-985f-50434230342e,rev?*
G04 #@! TF.SameCoordinates,Original*
G04 #@! TF.FileFunction,Copper,L1,Top*
G04 #@! TF.FilePolarity,Positive*
%FSLAX46Y46*%
G04 Gerber Fmt 4.6, Leading zero omitted, Abs format (unit mm)*
G04 Created by KiCad (PCBNEW 8.0.8) date 2025-03-22 22:47:56*
%MOMM*%
%LPD*%
G01*
G04 APERTURE LIST*
G04 Aperture macros list*
%AMRoundRect*
0 Rectangle with rounded corners*
0 $1 Rounding radius*
0 $2 $3 $4 $5 $6 $7 $8 $9 X,Y pos of 4 corners*
0 Add a 4 corners polygon primitive as box body*
4,1,4,$2,$3,$4,$5,$6,$7,$8,$9,$2,$3,0*
0 Add four circle primitives for the rounded corners*
1,1,$1+$1,$2,$3*
1,1,$1+$1,$4,$5*
1,1,$1+$1,$6,$7*
1,1,$1+$1,$8,$9*
0 Add four rect primitives between the rounded corners*
20,1,$1+$1,$2,$3,$4,$5,0*
20,1,$1+$1,$4,$5,$6,$7,0*
20,1,$1+$1,$6,$7,$8,$9,0*
20,1,$1+$1,$8,$9,$2,$3,0*%
G04 Aperture macros list end*
G04 #@! TA.AperFunction,ComponentPad*
%ADD10R,1.600000X1.600000*%
G04 #@! TD*
G04 #@! TA.AperFunction,ComponentPad*
%ADD11C,1.600000*%
G04 #@! TD*
G04 #@! TA.AperFunction,ComponentPad*
%ADD12R,1.700000X1.700000*%
G04 #@! TD*
G04 #@! TA.AperFunction,ComponentPad*
%ADD13O,1.700000X1.700000*%
G04 #@! TD*
G04 #@! TA.AperFunction,ComponentPad*
%ADD14RoundRect,0.250000X0.750000X-0.600000X0.750000X0.600000X-0.750000X0.600000X-0.750000X-0.600000X0*%
G04 #@! TD*
G04 #@! TA.AperFunction,ComponentPad*
%ADD15O,2.000000X1.700000*%
G04 #@! TD*
G04 #@! TA.AperFunction,ComponentPad*
%ADD16O,1.600000X1.600000*%
G04 #@! TD*
G04 #@! TA.AperFunction,ComponentPad*
%ADD17R,0.840000X0.840000*%
G04 #@! TD*
G04 #@! TA.AperFunction,ComponentPad*
%ADD18C,0.840000*%
G04 #@! TD*
G04 #@! TA.AperFunction,ComponentPad*
%ADD19O,0.850000X1.850000*%
G04 #@! TD*
G04 #@! TA.AperFunction,ComponentPad*
%ADD20R,1.800000X1.800000*%
G04 #@! TD*
G04 #@! TA.AperFunction,ComponentPad*
%ADD21C,1.800000*%
G04 #@! TD*
G04 #@! TA.AperFunction,ViaPad*
%ADD22C,0.800000*%
G04 #@! TD*
G04 #@! TA.AperFunction,Conductor*
%ADD23C,0.250000*%
G04 #@! TD*
G04 #@! TA.AperFunction,Conductor*
%ADD24C,0.750000*%
G04 #@! TD*
G04 APERTURE END LIST*
D10*
X128270000Y-124460000D03*
D11*
X121770000Y-124460000D03*
D12*
X118745000Y-75057000D03*
D13*
X121285000Y-75057000D03*
X123825000Y-75057000D03*
X126365000Y-75057000D03*
X128905000Y-75057000D03*
D12*
X118745000Y-78613000D03*
D13*
X121285000Y-78613000D03*
X123825000Y-78613000D03*
X126365000Y-78613000D03*
X128905000Y-78613000D03*
D12*
X111252000Y-80391000D03*
D13*
X111252000Y-77851000D03*
X111252000Y-75311000D03*
D12*
X113792000Y-80391000D03*
D13*
X113792000Y-77851000D03*
X113792000Y-75311000D03*
D12*
X130048000Y-70104000D03*
D13*
X127508000Y-70104000D03*
X124968000Y-70104000D03*
X122428000Y-70104000D03*
X119888000Y-70104000D03*
X117348000Y-70104000D03*
D12*
X120523000Y-83185000D03*
D13*
X120523000Y-85725000D03*
X120523000Y-88265000D03*
D14*
X113411000Y-109855000D03*
D15*
X113411000Y-107355000D03*
D14*
X113411000Y-118491000D03*
D15*
X113411000Y-115991000D03*
D14*
X113411000Y-127127000D03*
D15*
X113411000Y-124627000D03*
D11*
X124968000Y-83058000D03*
D16*
X124968000Y-93218000D03*
D12*
X129413000Y-85598000D03*
D13*
X129413000Y-88138000D03*
X129413000Y-90678000D03*
X129413000Y-93218000D03*
D17*
X112649000Y-101219000D03*
D18*
X113299000Y-102219000D03*
X113949000Y-101219000D03*
X114599000Y-102219000D03*
X115249000Y-101219000D03*
D19*
X110374000Y-101439000D03*
X117524000Y-101439000D03*
D12*
X120523000Y-93345000D03*
D13*
X120523000Y-95885000D03*
D12*
X140589000Y-104648000D03*
D13*
X140589000Y-107188000D03*
X140589000Y-109728000D03*
X140589000Y-112268000D03*
X140589000Y-114808000D03*
X140589000Y-117348000D03*
D12*
X140589000Y-69977000D03*
D13*
X140589000Y-72517000D03*
X140589000Y-75057000D03*
D12*
X140589000Y-78613000D03*
D13*
X140589000Y-81153000D03*
X140589000Y-83693000D03*
D12*
X140589000Y-127000000D03*
D13*
X140589000Y-129540000D03*
D12*
X140589000Y-92329000D03*
D13*
X140589000Y-89789000D03*
X140589000Y-87249000D03*
D12*
X140589000Y-120904000D03*
D13*
X140589000Y-123444000D03*
D12*
X140589000Y-96012000D03*
D13*
X140589000Y-98552000D03*
X140589000Y-101092000D03*
D12*
X123952000Y-116078000D03*
D13*
X126492000Y-116078000D03*
X129032000Y-116078000D03*
D20*
X122301000Y-103886000D03*
D21*
X124841000Y-103886000D03*
D12*
X129286000Y-98425000D03*
D13*
X129286000Y-100965000D03*
X129286000Y-103505000D03*
X129286000Y-106045000D03*
X129286000Y-108585000D03*
X129286000Y-111125000D03*
D12*
X134366000Y-75438000D03*
D13*
X136906000Y-75438000D03*
X134366000Y-77978000D03*
X136906000Y-77978000D03*
X134366000Y-80518000D03*
X136906000Y-80518000D03*
X134366000Y-83058000D03*
X136906000Y-83058000D03*
X134366000Y-85598000D03*
X136906000Y-85598000D03*
X134366000Y-88138000D03*
X136906000Y-88138000D03*
X134366000Y-90678000D03*
X136906000Y-90678000D03*
X134366000Y-93218000D03*
X136906000Y-93218000D03*
X134366000Y-95758000D03*
X136906000Y-95758000D03*
X134366000Y-98298000D03*
X136906000Y-98298000D03*
X134366000Y-100838000D03*
X136906000Y-100838000D03*
X134366000Y-103378000D03*
X136906000Y-103378000D03*
X134366000Y-105918000D03*
X136906000Y-105918000D03*
X134366000Y-108458000D03*
X136906000Y-108458000D03*
X134366000Y-110998000D03*
X136906000Y-110998000D03*
X134366000Y-113538000D03*
X136906000Y-113538000D03*
X134366000Y-116078000D03*
X136906000Y-116078000D03*
X134366000Y-118618000D03*
X136906000Y-118618000D03*
X134366000Y-121158000D03*
X136906000Y-121158000D03*
X134366000Y-123698000D03*
X136906000Y-123698000D03*
D22*
X114554000Y-72136000D03*
X132588000Y-70866000D03*
X116459000Y-74676000D03*
X138684000Y-75692000D03*
D23*
X128270000Y-124460000D02*
X131064000Y-124460000D01*
X131064000Y-124460000D02*
X134366000Y-121158000D01*
D24*
X123825000Y-80137000D02*
X123825000Y-78613000D01*
X134544000Y-73660000D02*
X139192000Y-73660000D01*
X123825000Y-75057000D02*
X123825000Y-73854919D01*
X142113000Y-83693000D02*
X140589000Y-83693000D01*
X133366919Y-72838919D02*
X134366000Y-73838000D01*
X142875000Y-82931000D02*
X142113000Y-83693000D01*
X134366000Y-73838000D02*
X134544000Y-73660000D01*
X116586000Y-72517000D02*
X119888000Y-72517000D01*
X140589000Y-87249000D02*
X141791081Y-87249000D01*
X142875000Y-75311000D02*
X142875000Y-82931000D01*
X119888000Y-71306081D02*
X119888000Y-72517000D01*
X119888000Y-72517000D02*
X123571000Y-72517000D01*
X134366000Y-73838000D02*
X134366000Y-75438000D01*
X129413000Y-85598000D02*
X129413000Y-82804000D01*
X123825000Y-73854919D02*
X124841000Y-72838919D01*
X124841000Y-72838919D02*
X133366919Y-72838919D01*
X142621000Y-75057000D02*
X142875000Y-75311000D01*
X111252000Y-75311000D02*
X113792000Y-75311000D01*
X142875000Y-100330000D02*
X142113000Y-101092000D01*
X124587000Y-80899000D02*
X123825000Y-80137000D01*
X119888000Y-70104000D02*
X119888000Y-71306081D01*
X140589000Y-75057000D02*
X142621000Y-75057000D01*
X127508000Y-80899000D02*
X124587000Y-80899000D01*
X142875000Y-88332919D02*
X142875000Y-100330000D01*
X123571000Y-72517000D02*
X123825000Y-72771000D01*
X141791081Y-87249000D02*
X142875000Y-88332919D01*
X123825000Y-75057000D02*
X123825000Y-78613000D01*
X129413000Y-82804000D02*
X127508000Y-80899000D01*
X139192000Y-73660000D02*
X140589000Y-75057000D01*
X142113000Y-101092000D02*
X140589000Y-101092000D01*
X123825000Y-72771000D02*
X123825000Y-75057000D01*
X113792000Y-75311000D02*
X116586000Y-72517000D01*
X140589000Y-83693000D02*
X140589000Y-87249000D01*
X132080000Y-67945000D02*
X132588000Y-68453000D01*
X114554000Y-72136000D02*
X114554000Y-68707000D01*
X112649000Y-100049000D02*
X112649000Y-101219000D01*
X111633000Y-102235000D02*
X112649000Y-101219000D01*
X118440000Y-87833000D02*
X118440000Y-80518000D01*
X126492000Y-114875919D02*
X119820081Y-108204000D01*
X115161000Y-115991000D02*
X115201000Y-115951000D01*
X119820081Y-108204000D02*
X117221000Y-108204000D01*
X115316000Y-67945000D02*
X130624002Y-67945000D01*
X118745000Y-75057000D02*
X118745000Y-78613000D01*
X118440000Y-80518000D02*
X118313000Y-80391000D01*
X117856000Y-115951000D02*
X117856000Y-122047000D01*
X117856000Y-122047000D02*
X115276000Y-124627000D01*
X115276000Y-124627000D02*
X113411000Y-124627000D01*
X116010000Y-108204000D02*
X117221000Y-108204000D01*
X136906000Y-75438000D02*
X136906000Y-77978000D01*
X120523000Y-95885000D02*
X116813000Y-95885000D01*
X118313000Y-80391000D02*
X113792000Y-80391000D01*
X132588000Y-68453000D02*
X132588000Y-70866000D01*
X116813000Y-95885000D02*
X112649000Y-100049000D01*
X117856000Y-108331000D02*
X117856000Y-115951000D01*
X113411000Y-105755000D02*
X111633000Y-103977000D01*
X126492000Y-116078000D02*
X126492000Y-114875919D01*
X114554000Y-68707000D02*
X115316000Y-67945000D01*
X116840000Y-75057000D02*
X116459000Y-74676000D01*
X118745000Y-80213000D02*
X118440000Y-80518000D01*
X113411000Y-107355000D02*
X113411000Y-105755000D01*
X118872000Y-88265000D02*
X118440000Y-87833000D01*
X113411000Y-115991000D02*
X115161000Y-115991000D01*
X115161000Y-107355000D02*
X116010000Y-108204000D01*
X117983000Y-108204000D02*
X117856000Y-108331000D01*
X115201000Y-115951000D02*
X117856000Y-115951000D01*
X111633000Y-103977000D02*
X111633000Y-102235000D01*
X118745000Y-78613000D02*
X118745000Y-80213000D01*
X130624002Y-67945000D02*
X132080000Y-67945000D01*
X113411000Y-107355000D02*
X115161000Y-107355000D01*
X120523000Y-88265000D02*
X118872000Y-88265000D01*
X117221000Y-108204000D02*
X117983000Y-108204000D01*
X118745000Y-75057000D02*
X116840000Y-75057000D01*
X120523000Y-88265000D02*
X120523000Y-93345000D01*
X111252000Y-80391000D02*
X113792000Y-80391000D01*
D23*
X136906000Y-121158000D02*
X140335000Y-121158000D01*
X140335000Y-121158000D02*
X140589000Y-120904000D01*
X136906000Y-123698000D02*
X140208000Y-127000000D01*
X140208000Y-127000000D02*
X140589000Y-127000000D01*
X128905000Y-76259081D02*
X128905000Y-78613000D01*
X128905000Y-75057000D02*
X128905000Y-76259081D01*
X132461000Y-78613000D02*
X134366000Y-80518000D01*
X128905000Y-78613000D02*
X132461000Y-78613000D01*
X126365000Y-75057000D02*
X126365000Y-76259081D01*
X126365000Y-76259081D02*
X126365000Y-78613000D01*
X138176000Y-95825919D02*
X138108081Y-95758000D01*
X138616081Y-97595081D02*
X138176000Y-97155000D01*
X138895000Y-101854000D02*
X140589000Y-103548000D01*
X140589000Y-103548000D02*
X140589000Y-104648000D01*
X138616081Y-97976081D02*
X138811000Y-98171000D01*
X138176000Y-97155000D02*
X138176000Y-95825919D01*
X138616081Y-97976081D02*
X138616081Y-97595081D01*
X138811000Y-98171000D02*
X138811000Y-101854000D01*
X136906000Y-95758000D02*
X138108081Y-95758000D01*
X138811000Y-101854000D02*
X138895000Y-101854000D01*
X138811000Y-102743000D02*
X138811000Y-104646590D01*
X139192000Y-105027590D02*
X139192000Y-105918000D01*
X136906000Y-100838000D02*
X138811000Y-102743000D01*
X138811000Y-104646590D02*
X139192000Y-105027590D01*
X139319000Y-105918000D02*
X140589000Y-107188000D01*
X139192000Y-105918000D02*
X139319000Y-105918000D01*
X139739001Y-108241591D02*
X139739001Y-108878001D01*
X138811000Y-107313590D02*
X139739001Y-108241591D01*
X136906000Y-103378000D02*
X138684000Y-105156000D01*
X138684000Y-105156000D02*
X138684000Y-106807000D01*
X138684000Y-106807000D02*
X138811000Y-106934000D01*
X138811000Y-106934000D02*
X138811000Y-107313590D01*
X139739001Y-108878001D02*
X140589000Y-109728000D01*
X138811000Y-110490000D02*
X138811000Y-107950000D01*
X138176000Y-107188000D02*
X136906000Y-105918000D01*
X138811000Y-107950000D02*
X138176000Y-107315000D01*
X140589000Y-112268000D02*
X138811000Y-110490000D01*
X138176000Y-107315000D02*
X138176000Y-107188000D01*
X140589000Y-114808000D02*
X138176000Y-114808000D01*
X138176000Y-114808000D02*
X136906000Y-113538000D01*
X136906000Y-118618000D02*
X139319000Y-118618000D01*
X139319000Y-118618000D02*
X140589000Y-117348000D01*
X137755999Y-82208001D02*
X137882999Y-82208001D01*
X136906000Y-83058000D02*
X137755999Y-82208001D01*
X137882999Y-82208001D02*
X138684000Y-81407000D01*
X138684000Y-81407000D02*
X138684000Y-75692000D01*
X138811000Y-83693000D02*
X138811000Y-82931000D01*
X136906000Y-85598000D02*
X138811000Y-83693000D01*
X138811000Y-82931000D02*
X140589000Y-81153000D01*
X138557000Y-89789000D02*
X140589000Y-89789000D01*
X136906000Y-88138000D02*
X138557000Y-89789000D01*
X129413000Y-88138000D02*
X131826000Y-88138000D01*
X131826000Y-88138000D02*
X134366000Y-90678000D01*
X129413000Y-90678000D02*
X131953000Y-93218000D01*
X131953000Y-93218000D02*
X134366000Y-93218000D01*
X138938000Y-96393000D02*
X139065000Y-96520000D01*
X138938000Y-93853000D02*
X138938000Y-96393000D01*
X139319000Y-97282000D02*
X140589000Y-98552000D01*
X138362081Y-93472000D02*
X138557000Y-93472000D01*
X138108081Y-93218000D02*
X138362081Y-93472000D01*
X139065000Y-97282000D02*
X139319000Y-97282000D01*
X138557000Y-93472000D02*
X138938000Y-93853000D01*
X136906000Y-93218000D02*
X138108081Y-93218000D01*
X139065000Y-96520000D02*
X139065000Y-97282000D01*
X129286000Y-98425000D02*
X134239000Y-98425000D01*
X134239000Y-98425000D02*
X134366000Y-98298000D01*
X129286000Y-100965000D02*
X134239000Y-100965000D01*
X134239000Y-100965000D02*
X134366000Y-100838000D01*
X134239000Y-103505000D02*
X134366000Y-103378000D01*
X129286000Y-103505000D02*
X134239000Y-103505000D01*
X130615081Y-106172000D02*
X131572000Y-106172000D01*
X131572000Y-106172000D02*
X132334000Y-106934000D01*
X129286000Y-106045000D02*
X130488081Y-106045000D01*
X132334000Y-106934000D02*
X132334000Y-108966000D01*
X133516001Y-110148001D02*
X134366000Y-110998000D01*
X130488081Y-106045000D02*
X130615081Y-106172000D01*
X132334000Y-108966000D02*
X133516001Y-110148001D01*
X130615081Y-108712000D02*
X131445000Y-108712000D01*
X130488081Y-108585000D02*
X130615081Y-108712000D01*
X131445000Y-110871000D02*
X131699000Y-110871000D01*
X131699000Y-110871000D02*
X134366000Y-113538000D01*
X131445000Y-108712000D02*
X131445000Y-110871000D01*
X129286000Y-108585000D02*
X130488081Y-108585000D01*
X134239000Y-116078000D02*
X134366000Y-116078000D01*
X129286000Y-111125000D02*
X134239000Y-116078000D01*
X124968000Y-93218000D02*
X124968000Y-103759000D01*
X124968000Y-103759000D02*
X124841000Y-103886000D01*
X131826000Y-116078000D02*
X134366000Y-118618000D01*
X129032000Y-116078000D02*
X131826000Y-116078000D01*
M02*
