M48
; DRILL file {KiCad 8.0.8} date 2025-03-22T22:48:15+0000
; FORMAT={-:-/ absolute / metric / decimal}
; #@! TF.CreationDate,2025-03-22T22:48:15+00:00
; #@! TF.GenerationSoftware,Kicad,Pcbnew,8.0.8
; #@! TF.FileFunction,Plated,1,2,PTH
FMAT,2
METRIC
; #@! TA.AperFunction,Plated,PTH,ComponentDrill
T1C0.350
; #@! TA.AperFunction,Plated,PTH,ViaDrill
T2C0.400
; #@! TA.AperFunction,Plated,PTH,ComponentDrill
T3C0.440
; #@! TA.AperFunction,Plated,PTH,ComponentDrill
T4C0.800
; #@! TA.AperFunction,Plated,PTH,ComponentDrill
T5C0.900
; #@! TA.AperFunction,Plated,PTH,ComponentDrill
T6C1.000
%
G90
G05
T2
X114.554Y-72.136
X116.459Y-74.676
X132.588Y-70.866
X138.684Y-75.692
T3
X112.649Y-101.219
X113.299Y-102.219
X113.949Y-101.219
X114.599Y-102.219
X115.249Y-101.219
T4
X124.968Y-83.058
X124.968Y-93.218
T5
X122.301Y-103.886
X124.841Y-103.886
T6
X111.252Y-75.311
X111.252Y-77.851
X111.252Y-80.391
X113.411Y-107.355
X113.411Y-109.855
X113.411Y-115.991
X113.411Y-118.491
X113.411Y-124.627
X113.411Y-127.127
X113.792Y-75.311
X113.792Y-77.851
X113.792Y-80.391
X117.348Y-70.104
X118.745Y-75.057
X118.745Y-78.613
X119.888Y-70.104
X120.523Y-83.185
X120.523Y-85.725
X120.523Y-88.265
X120.523Y-93.345
X120.523Y-95.885
X121.285Y-75.057
X121.285Y-78.613
X121.77Y-124.46
X122.428Y-70.104
X123.825Y-75.057
X123.825Y-78.613
X123.952Y-116.078
X124.968Y-70.104
X126.365Y-75.057
X126.365Y-78.613
X126.492Y-116.078
X127.508Y-70.104
X128.27Y-124.46
X128.905Y-75.057
X128.905Y-78.613
X129.032Y-116.078
X129.286Y-98.425
X129.286Y-100.965
X129.286Y-103.505
X129.286Y-106.045
X129.286Y-108.585
X129.286Y-111.125
X129.413Y-85.598
X129.413Y-88.138
X129.413Y-90.678
X129.413Y-93.218
X130.048Y-70.104
X134.366Y-75.438
X134.366Y-77.978
X134.366Y-80.518
X134.366Y-83.058
X134.366Y-85.598
X134.366Y-88.138
X134.366Y-90.678
X134.366Y-93.218
X134.366Y-95.758
X134.366Y-98.298
X134.366Y-100.838
X134.366Y-103.378
X134.366Y-105.918
X134.366Y-108.458
X134.366Y-110.998
X134.366Y-113.538
X134.366Y-116.078
X134.366Y-118.618
X134.366Y-121.158
X134.366Y-123.698
X136.906Y-75.438
X136.906Y-77.978
X136.906Y-80.518
X136.906Y-83.058
X136.906Y-85.598
X136.906Y-88.138
X136.906Y-90.678
X136.906Y-93.218
X136.906Y-95.758
X136.906Y-98.298
X136.906Y-100.838
X136.906Y-103.378
X136.906Y-105.918
X136.906Y-108.458
X136.906Y-110.998
X136.906Y-113.538
X136.906Y-116.078
X136.906Y-118.618
X136.906Y-121.158
X136.906Y-123.698
X140.589Y-69.977
X140.589Y-72.517
X140.589Y-75.057
X140.589Y-78.613
X140.589Y-81.153
X140.589Y-83.693
X140.589Y-87.249
X140.589Y-89.789
X140.589Y-92.329
X140.589Y-96.012
X140.589Y-98.552
X140.589Y-101.092
X140.589Y-104.648
X140.589Y-107.188
X140.589Y-109.728
X140.589Y-112.268
X140.589Y-114.808
X140.589Y-117.348
X140.589Y-120.904
X140.589Y-123.444
X140.589Y-127.0
X140.589Y-129.54
T1
X110.374Y-100.939G85X110.374Y-101.939
G05
X117.524Y-100.939G85X117.524Y-101.939
G05
M30
