G04 #@! TF.GenerationSoftware,KiCad,Pcbnew,8.0.8*
G04 #@! TF.CreationDate,2025-03-22T22:47:56+00:00*
G04 #@! TF.ProjectId,RPi-flex_PCB04,5250692d-666c-4657-985f-50434230342e,rev?*
G04 #@! TF.SameCoordinates,Original*
G04 #@! TF.FileFunction,Copper,L2,Bot*
G04 #@! TF.FilePolarity,Positive*
%FSLAX46Y46*%
G04 Gerber Fmt 4.6, Leading zero omitted, Abs format (unit mm)*
G04 Created by KiCad (PCBNEW 8.0.8) date 2025-03-22 22:47:56*
%MOMM*%
%LPD*%
G01*
G04 APERTURE LIST*
G04 Aperture macros list*
%AMRoundRect*
0 Rectangle with rounded corners*
0 $1 Rounding radius*
0 $2 $3 $4 $5 $6 $7 $8 $9 X,Y pos of 4 corners*
0 Add a 4 corners polygon primitive as box body*
4,1,4,$2,$3,$4,$5,$6,$7,$8,$9,$2,$3,0*
0 Add four circle primitives for the rounded corners*
1,1,$1+$1,$2,$3*
1,1,$1+$1,$4,$5*
1,1,$1+$1,$6,$7*
1,1,$1+$1,$8,$9*
0 Add four rect primitives between the rounded corners*
20,1,$1+$1,$2,$3,$4,$5,0*
20,1,$1+$1,$4,$5,$6,$7,0*
20,1,$1+$1,$6,$7,$8,$9,0*
20,1,$1+$1,$8,$9,$2,$3,0*%
G04 Aperture macros list end*
G04 #@! TA.AperFunction,ComponentPad*
%ADD10R,1.600000X1.600000*%
G04 #@! TD*
G04 #@! TA.AperFunction,ComponentPad*
%ADD11C,1.600000*%
G04 #@! TD*
G04 #@! TA.AperFunction,ComponentPad*
%ADD12R,1.700000X1.700000*%
G04 #@! TD*
G04 #@! TA.AperFunction,ComponentPad*
%ADD13O,1.700000X1.700000*%
G04 #@! TD*
G04 #@! TA.AperFunction,ComponentPad*
%ADD14RoundRect,0.250000X0.750000X-0.600000X0.750000X0.600000X-0.750000X0.600000X-0.750000X-0.600000X0*%
G04 #@! TD*
G04 #@! TA.AperFunction,ComponentPad*
%ADD15O,2.000000X1.700000*%
G04 #@! TD*
G04 #@! TA.AperFunction,ComponentPad*
%ADD16O,1.600000X1.600000*%
G04 #@! TD*
G04 #@! TA.AperFunction,ComponentPad*
%ADD17R,0.840000X0.840000*%
G04 #@! TD*
G04 #@! TA.AperFunction,ComponentPad*
%ADD18C,0.840000*%
G04 #@! TD*
G04 #@! TA.AperFunction,ComponentPad*
%ADD19O,0.850000X1.850000*%
G04 #@! TD*
G04 #@! TA.AperFunction,ComponentPad*
%ADD20R,1.800000X1.800000*%
G04 #@! TD*
G04 #@! TA.AperFunction,ComponentPad*
%ADD21C,1.800000*%
G04 #@! TD*
G04 #@! TA.AperFunction,ViaPad*
%ADD22C,0.800000*%
G04 #@! TD*
G04 #@! TA.AperFunction,Conductor*
%ADD23C,0.250000*%
G04 #@! TD*
G04 #@! TA.AperFunction,Conductor*
%ADD24C,0.750000*%
G04 #@! TD*
G04 #@! TA.AperFunction,Conductor*
%ADD25C,0.500000*%
G04 #@! TD*
G04 APERTURE END LIST*
D10*
X128270000Y-124460000D03*
D11*
X121770000Y-124460000D03*
D12*
X118745000Y-75057000D03*
D13*
X121285000Y-75057000D03*
X123825000Y-75057000D03*
X126365000Y-75057000D03*
X128905000Y-75057000D03*
D12*
X118745000Y-78613000D03*
D13*
X121285000Y-78613000D03*
X123825000Y-78613000D03*
X126365000Y-78613000D03*
X128905000Y-78613000D03*
D12*
X111252000Y-80391000D03*
D13*
X111252000Y-77851000D03*
X111252000Y-75311000D03*
D12*
X113792000Y-80391000D03*
D13*
X113792000Y-77851000D03*
X113792000Y-75311000D03*
D12*
X130048000Y-70104000D03*
D13*
X127508000Y-70104000D03*
X124968000Y-70104000D03*
X122428000Y-70104000D03*
X119888000Y-70104000D03*
X117348000Y-70104000D03*
D12*
X120523000Y-83185000D03*
D13*
X120523000Y-85725000D03*
X120523000Y-88265000D03*
D14*
X113411000Y-109855000D03*
D15*
X113411000Y-107355000D03*
D14*
X113411000Y-118491000D03*
D15*
X113411000Y-115991000D03*
D14*
X113411000Y-127127000D03*
D15*
X113411000Y-124627000D03*
D11*
X124968000Y-83058000D03*
D16*
X124968000Y-93218000D03*
D12*
X129413000Y-85598000D03*
D13*
X129413000Y-88138000D03*
X129413000Y-90678000D03*
X129413000Y-93218000D03*
D17*
X112649000Y-101219000D03*
D18*
X113299000Y-102219000D03*
X113949000Y-101219000D03*
X114599000Y-102219000D03*
X115249000Y-101219000D03*
D19*
X110374000Y-101439000D03*
X117524000Y-101439000D03*
D12*
X120523000Y-93345000D03*
D13*
X120523000Y-95885000D03*
D12*
X140589000Y-104648000D03*
D13*
X140589000Y-107188000D03*
X140589000Y-109728000D03*
X140589000Y-112268000D03*
X140589000Y-114808000D03*
X140589000Y-117348000D03*
D12*
X140589000Y-69977000D03*
D13*
X140589000Y-72517000D03*
X140589000Y-75057000D03*
D12*
X140589000Y-78613000D03*
D13*
X140589000Y-81153000D03*
X140589000Y-83693000D03*
D12*
X140589000Y-127000000D03*
D13*
X140589000Y-129540000D03*
D12*
X140589000Y-92329000D03*
D13*
X140589000Y-89789000D03*
X140589000Y-87249000D03*
D12*
X140589000Y-120904000D03*
D13*
X140589000Y-123444000D03*
D12*
X140589000Y-96012000D03*
D13*
X140589000Y-98552000D03*
X140589000Y-101092000D03*
D12*
X123952000Y-116078000D03*
D13*
X126492000Y-116078000D03*
X129032000Y-116078000D03*
D20*
X122301000Y-103886000D03*
D21*
X124841000Y-103886000D03*
D12*
X129286000Y-98425000D03*
D13*
X129286000Y-100965000D03*
X129286000Y-103505000D03*
X129286000Y-106045000D03*
X129286000Y-108585000D03*
X129286000Y-111125000D03*
D12*
X134366000Y-75438000D03*
D13*
X136906000Y-75438000D03*
X134366000Y-77978000D03*
X136906000Y-77978000D03*
X134366000Y-80518000D03*
X136906000Y-80518000D03*
X134366000Y-83058000D03*
X136906000Y-83058000D03*
X134366000Y-85598000D03*
X136906000Y-85598000D03*
X134366000Y-88138000D03*
X136906000Y-88138000D03*
X134366000Y-90678000D03*
X136906000Y-90678000D03*
X134366000Y-93218000D03*
X136906000Y-93218000D03*
X134366000Y-95758000D03*
X136906000Y-95758000D03*
X134366000Y-98298000D03*
X136906000Y-98298000D03*
X134366000Y-100838000D03*
X136906000Y-100838000D03*
X134366000Y-103378000D03*
X136906000Y-103378000D03*
X134366000Y-105918000D03*
X136906000Y-105918000D03*
X134366000Y-108458000D03*
X136906000Y-108458000D03*
X134366000Y-110998000D03*
X136906000Y-110998000D03*
X134366000Y-113538000D03*
X136906000Y-113538000D03*
X134366000Y-116078000D03*
X136906000Y-116078000D03*
X134366000Y-118618000D03*
X136906000Y-118618000D03*
X134366000Y-121158000D03*
X136906000Y-121158000D03*
X134366000Y-123698000D03*
X136906000Y-123698000D03*
D22*
X114554000Y-72136000D03*
X132588000Y-70866000D03*
X116459000Y-74676000D03*
X138684000Y-75692000D03*
D23*
X123698000Y-82042000D02*
X123698000Y-86995000D01*
X123952000Y-81788000D02*
X123698000Y-82042000D01*
D24*
X140589000Y-68377000D02*
X140589000Y-69977000D01*
D23*
X136906000Y-98298000D02*
X139192000Y-96012000D01*
X133350000Y-84582000D02*
X133350000Y-84201000D01*
X140589000Y-123444000D02*
X139386919Y-123444000D01*
D24*
X140589000Y-92329000D02*
X140589000Y-96012000D01*
D23*
X138811000Y-78613000D02*
X140589000Y-78613000D01*
X139386919Y-123444000D02*
X139132919Y-123190000D01*
D25*
X115249000Y-100625031D02*
X115316000Y-100558031D01*
D23*
X139132919Y-122749919D02*
X138811000Y-122428000D01*
D25*
X115316000Y-100558031D02*
X115316000Y-99060000D01*
D24*
X140284000Y-68072000D02*
X140589000Y-68377000D01*
D23*
X138557000Y-92329000D02*
X140589000Y-92329000D01*
X134366000Y-85598000D02*
X133350000Y-84582000D01*
D24*
X130048000Y-70104000D02*
X130048000Y-68504000D01*
D23*
X139132919Y-123190000D02*
X139132919Y-122749919D01*
D24*
X130048000Y-68504000D02*
X130480000Y-68072000D01*
D23*
X136906000Y-80518000D02*
X138811000Y-78613000D01*
X130937000Y-81788000D02*
X123952000Y-81788000D01*
D25*
X115249000Y-101219000D02*
X115249000Y-100625031D01*
D23*
X138557000Y-111760000D02*
X138557000Y-114427000D01*
D24*
X121285000Y-75057000D02*
X121285000Y-78613000D01*
D23*
X138557000Y-114427000D02*
X136906000Y-116078000D01*
X138811000Y-122428000D02*
X138811000Y-117983000D01*
X139192000Y-96012000D02*
X140589000Y-96012000D01*
X138811000Y-117983000D02*
X136906000Y-116078000D01*
D24*
X111252000Y-77851000D02*
X113792000Y-77851000D01*
D23*
X136906000Y-90678000D02*
X138557000Y-92329000D01*
D24*
X130480000Y-68072000D02*
X140284000Y-68072000D01*
D23*
X138303000Y-111506000D02*
X138557000Y-111760000D01*
X138303000Y-111192919D02*
X138303000Y-111506000D01*
X133350000Y-84201000D02*
X130937000Y-81788000D01*
X136906000Y-110998000D02*
X138108081Y-110998000D01*
X138108081Y-110998000D02*
X138303000Y-111192919D01*
D25*
X134366000Y-95758000D02*
X132842000Y-95758000D01*
X130763000Y-85598000D02*
X129413000Y-85598000D01*
X132842000Y-95758000D02*
X131953000Y-94869000D01*
X131953000Y-86788000D02*
X130763000Y-85598000D01*
X131953000Y-94869000D02*
X131953000Y-86788000D01*
D24*
X132588000Y-70866000D02*
X132588000Y-72009000D01*
X116459000Y-74676000D02*
X116459000Y-73279000D01*
X134239000Y-73660000D02*
X136525000Y-73660000D01*
X136525000Y-73660000D02*
X136906000Y-74041000D01*
X132588000Y-72009000D02*
X134239000Y-73660000D01*
X115062000Y-72644000D02*
X114554000Y-72136000D01*
X116459000Y-73279000D02*
X115824000Y-72644000D01*
X136906000Y-74041000D02*
X136906000Y-75438000D01*
X115824000Y-72644000D02*
X115062000Y-72644000D01*
D23*
X124968000Y-70104000D02*
X128905000Y-74041000D01*
X128905000Y-74041000D02*
X128905000Y-75057000D01*
X133223000Y-76835000D02*
X134366000Y-77978000D01*
X122428000Y-70104000D02*
X126365000Y-74041000D01*
X126365000Y-78613000D02*
X126365000Y-77410919D01*
X126940919Y-76835000D02*
X133223000Y-76835000D01*
X126365000Y-74041000D02*
X126365000Y-75057000D01*
X126365000Y-77410919D02*
X126940919Y-76835000D01*
X122614081Y-81339081D02*
X122800162Y-81153000D01*
X121725081Y-85725000D02*
X122614081Y-84836000D01*
X120523000Y-85725000D02*
X121725081Y-85725000D01*
X122800162Y-81153000D02*
X132461000Y-81153000D01*
X122614081Y-84836000D02*
X122614081Y-81339081D01*
X132461000Y-81153000D02*
X134366000Y-83058000D01*
X139386919Y-72517000D02*
X140589000Y-72517000D01*
X138684000Y-75692000D02*
X138684000Y-73219919D01*
X138684000Y-73219919D02*
X139386919Y-72517000D01*
X132334000Y-84201000D02*
X132334000Y-86106000D01*
X126226370Y-83185000D02*
X131318000Y-83185000D01*
X126099370Y-83058000D02*
X126226370Y-83185000D01*
X131318000Y-83185000D02*
X132334000Y-84201000D01*
X132334000Y-86106000D02*
X134366000Y-88138000D01*
X124968000Y-83058000D02*
X126099370Y-83058000D01*
G04 #@! TA.AperFunction,Conductor*
G36*
X138804479Y-68107289D02*
G01*
X138870242Y-68137322D01*
X138924879Y-68184665D01*
X138963966Y-68245485D01*
X138984334Y-68314852D01*
X138984334Y-68387148D01*
X138963966Y-68456515D01*
X138929264Y-68512135D01*
X138890140Y-68559807D01*
X138795796Y-68736312D01*
X138737700Y-68927828D01*
X138717130Y-69136684D01*
X138720689Y-69297979D01*
X138891710Y-69469000D01*
X140239542Y-69469000D01*
X140298852Y-69451585D01*
X140335000Y-69449000D01*
X140843000Y-69449000D01*
X140914560Y-69459289D01*
X140935824Y-69469000D01*
X142286290Y-69469000D01*
X142457310Y-69297979D01*
X142460869Y-69136684D01*
X142440299Y-68927828D01*
X142382203Y-68736312D01*
X142287859Y-68559807D01*
X142248736Y-68512135D01*
X142211292Y-68450291D01*
X142192789Y-68380403D01*
X142194724Y-68308133D01*
X142216942Y-68239336D01*
X142257643Y-68179585D01*
X142313529Y-68133721D01*
X142380072Y-68105460D01*
X142445081Y-68097000D01*
X142977000Y-68097000D01*
X143048560Y-68107289D01*
X143114323Y-68137322D01*
X143168960Y-68184665D01*
X143208047Y-68245485D01*
X143228415Y-68314852D01*
X143231000Y-68351000D01*
X143231001Y-130404000D01*
X143220712Y-130475560D01*
X143190679Y-130541323D01*
X143143336Y-130595960D01*
X143082516Y-130635047D01*
X143013149Y-130655415D01*
X142977001Y-130658000D01*
X142513937Y-130658000D01*
X142442377Y-130647711D01*
X142376614Y-130617678D01*
X142321977Y-130570335D01*
X142282890Y-130509515D01*
X142262522Y-130440148D01*
X142262522Y-130367852D01*
X142280993Y-130302743D01*
X142340875Y-130164982D01*
X142249561Y-130048000D01*
X140938458Y-130048000D01*
X140879148Y-130065415D01*
X140843000Y-130068000D01*
X140335000Y-130068000D01*
X140263440Y-130057711D01*
X140242176Y-130048000D01*
X138928439Y-130048000D01*
X138837124Y-130164982D01*
X138897007Y-130302743D01*
X138916099Y-130372473D01*
X138914772Y-130444756D01*
X138893134Y-130513738D01*
X138852938Y-130573830D01*
X138797441Y-130620163D01*
X138731138Y-130648984D01*
X138664063Y-130658000D01*
X137029900Y-130658000D01*
X136958340Y-130647711D01*
X136892577Y-130617678D01*
X136837940Y-130570335D01*
X136798853Y-130509515D01*
X136778485Y-130440148D01*
X136778485Y-130367852D01*
X136798853Y-130298485D01*
X136837940Y-130237665D01*
X136888786Y-130192806D01*
X136984872Y-130128603D01*
X137279604Y-129833871D01*
X137511174Y-129487301D01*
X137670683Y-129102212D01*
X137752000Y-128693410D01*
X137752000Y-128276589D01*
X137670683Y-127867787D01*
X137511174Y-127482698D01*
X137279604Y-127136128D01*
X136984871Y-126841395D01*
X136638301Y-126609825D01*
X136253212Y-126450316D01*
X135844410Y-126369000D01*
X135427590Y-126369000D01*
X135018787Y-126450316D01*
X134633698Y-126609825D01*
X134287128Y-126841395D01*
X133992395Y-127136128D01*
X133760825Y-127482698D01*
X133601316Y-127867787D01*
X133520000Y-128276589D01*
X133520000Y-128693410D01*
X133601316Y-129102212D01*
X133760825Y-129487301D01*
X133992395Y-129833871D01*
X134287127Y-130128603D01*
X134383214Y-130192806D01*
X134436998Y-130241118D01*
X134474993Y-130302625D01*
X134494120Y-130372345D01*
X134492829Y-130444629D01*
X134471227Y-130513622D01*
X134431061Y-130573734D01*
X134375587Y-130620095D01*
X134309299Y-130648950D01*
X134242100Y-130658000D01*
X109880000Y-130658000D01*
X109808440Y-130647711D01*
X109742677Y-130617678D01*
X109688040Y-130570335D01*
X109648953Y-130509515D01*
X109628585Y-130440148D01*
X109626000Y-130404000D01*
X109626000Y-127967315D01*
X111389130Y-127967315D01*
X111409700Y-128176171D01*
X111467796Y-128367687D01*
X111562138Y-128544189D01*
X111689103Y-128698896D01*
X111843810Y-128825861D01*
X112020312Y-128920203D01*
X112211828Y-128978299D01*
X112421661Y-128998965D01*
X112732785Y-128994504D01*
X112903000Y-128824290D01*
X113919000Y-128824290D01*
X114089214Y-128994504D01*
X114400338Y-128998965D01*
X114610171Y-128978299D01*
X114801687Y-128920203D01*
X114978189Y-128825861D01*
X115132896Y-128698896D01*
X115259861Y-128544189D01*
X115354203Y-128367687D01*
X115412299Y-128176171D01*
X115432869Y-127967315D01*
X115429310Y-127806020D01*
X115258290Y-127635000D01*
X113919000Y-127635000D01*
X113919000Y-128824290D01*
X112903000Y-128824290D01*
X112903000Y-127635000D01*
X111563710Y-127635000D01*
X111392689Y-127806020D01*
X111389130Y-127967315D01*
X109626000Y-127967315D01*
X109626000Y-124627000D01*
X111385972Y-124627000D01*
X111421999Y-124992800D01*
X111528700Y-125344544D01*
X111580118Y-125440740D01*
X111604777Y-125508700D01*
X111609291Y-125580855D01*
X111593293Y-125651359D01*
X111573214Y-125687363D01*
X111573932Y-125687747D01*
X111467796Y-125886312D01*
X111409700Y-126077828D01*
X111389130Y-126286684D01*
X111392689Y-126447979D01*
X111563710Y-126619000D01*
X113061542Y-126619000D01*
X113120852Y-126601585D01*
X113157000Y-126599000D01*
X113665000Y-126599000D01*
X113736560Y-126609289D01*
X113757824Y-126619000D01*
X115258290Y-126619000D01*
X115429310Y-126447979D01*
X115432869Y-126286684D01*
X115412298Y-126077828D01*
X115378382Y-125966021D01*
X120982398Y-125966021D01*
X120997990Y-126104706D01*
X121214115Y-126198057D01*
X121563878Y-126273108D01*
X121921553Y-126278483D01*
X122273414Y-126213972D01*
X122541690Y-126107542D01*
X122557601Y-125966021D01*
X121770000Y-125178420D01*
X120982398Y-125966021D01*
X115378382Y-125966021D01*
X115372496Y-125946616D01*
X115354202Y-125886311D01*
X115248068Y-125687747D01*
X115248804Y-125687353D01*
X115232099Y-125659761D01*
X115213597Y-125589873D01*
X115215534Y-125517603D01*
X115237754Y-125448806D01*
X115241882Y-125440740D01*
X115293299Y-125344544D01*
X115400000Y-124992800D01*
X115436027Y-124626999D01*
X115434506Y-124611553D01*
X119951516Y-124611553D01*
X120016027Y-124963414D01*
X120122457Y-125231690D01*
X120263978Y-125247601D01*
X121051580Y-124460000D01*
X122488420Y-124460000D01*
X123276021Y-125247601D01*
X123414706Y-125232009D01*
X123508057Y-125015884D01*
X123583108Y-124666121D01*
X123588483Y-124308446D01*
X123523972Y-123956584D01*
X123443471Y-123753666D01*
X123417542Y-123688309D01*
X123276741Y-123672479D01*
X126447856Y-123672479D01*
X126447856Y-125247520D01*
X126468701Y-125459170D01*
X126526798Y-125650689D01*
X126621140Y-125827190D01*
X126748103Y-125981896D01*
X126902809Y-126108859D01*
X127079310Y-126203201D01*
X127270829Y-126261298D01*
X127482480Y-126282144D01*
X129057520Y-126282144D01*
X129269170Y-126261298D01*
X129460689Y-126203201D01*
X129637190Y-126108859D01*
X129791896Y-125981896D01*
X129918859Y-125827190D01*
X130013201Y-125650689D01*
X130071298Y-125459170D01*
X130092144Y-125247520D01*
X130092144Y-124322982D01*
X132614124Y-124322982D01*
X132736905Y-124605440D01*
X132945243Y-124905828D01*
X133208175Y-125159793D01*
X133515607Y-125357588D01*
X133744789Y-125447893D01*
X133858000Y-125360465D01*
X133858000Y-124206000D01*
X132705439Y-124206000D01*
X132614124Y-124322982D01*
X130092144Y-124322982D01*
X130092144Y-123672479D01*
X130071298Y-123460829D01*
X130013201Y-123269310D01*
X129918859Y-123092809D01*
X129791896Y-122938103D01*
X129637190Y-122811140D01*
X129460689Y-122716798D01*
X129269170Y-122658701D01*
X129057520Y-122637856D01*
X127482480Y-122637856D01*
X127270829Y-122658701D01*
X127079310Y-122716798D01*
X126902809Y-122811140D01*
X126748103Y-122938103D01*
X126621140Y-123092809D01*
X126526798Y-123269310D01*
X126468701Y-123460829D01*
X126447856Y-123672479D01*
X123276741Y-123672479D01*
X123276021Y-123672398D01*
X122488420Y-124460000D01*
X121051580Y-124460000D01*
X120263978Y-123672398D01*
X120125293Y-123687990D01*
X120031942Y-123904115D01*
X119956891Y-124253878D01*
X119951516Y-124611553D01*
X115434506Y-124611553D01*
X115400000Y-124261199D01*
X115293300Y-123909458D01*
X115120029Y-123585291D01*
X114886843Y-123301154D01*
X114816546Y-123243462D01*
X114602708Y-123067970D01*
X114389444Y-122953978D01*
X120982398Y-122953978D01*
X121770000Y-123741580D01*
X122557601Y-122953978D01*
X122542009Y-122815293D01*
X122325884Y-122721942D01*
X121976121Y-122646891D01*
X121618446Y-122641516D01*
X121266585Y-122706027D01*
X120998309Y-122812457D01*
X120982398Y-122953978D01*
X114389444Y-122953978D01*
X114278541Y-122894699D01*
X113926800Y-122787999D01*
X113652663Y-122761000D01*
X113169337Y-122761000D01*
X112895199Y-122787999D01*
X112543458Y-122894699D01*
X112219291Y-123067970D01*
X111935155Y-123301155D01*
X111701970Y-123585291D01*
X111528699Y-123909458D01*
X111421999Y-124261199D01*
X111385972Y-124627000D01*
X109626000Y-124627000D01*
X109626000Y-119331315D01*
X111389130Y-119331315D01*
X111409700Y-119540171D01*
X111467796Y-119731687D01*
X111562138Y-119908189D01*
X111689103Y-120062896D01*
X111843810Y-120189861D01*
X112020312Y-120284203D01*
X112211828Y-120342299D01*
X112421661Y-120362965D01*
X112732785Y-120358504D01*
X112903000Y-120188290D01*
X113919000Y-120188290D01*
X114089214Y-120358504D01*
X114400338Y-120362965D01*
X114610171Y-120342299D01*
X114801687Y-120284203D01*
X114978189Y-120189861D01*
X115132896Y-120062896D01*
X115259861Y-119908189D01*
X115354203Y-119731687D01*
X115412299Y-119540171D01*
X115432869Y-119331315D01*
X115429310Y-119170020D01*
X115258290Y-118999000D01*
X113919000Y-118999000D01*
X113919000Y-120188290D01*
X112903000Y-120188290D01*
X112903000Y-118999000D01*
X111563710Y-118999000D01*
X111392689Y-119170020D01*
X111389130Y-119331315D01*
X109626000Y-119331315D01*
X109626000Y-115991000D01*
X111385972Y-115991000D01*
X111421999Y-116356800D01*
X111528700Y-116708544D01*
X111580118Y-116804740D01*
X111604777Y-116872700D01*
X111609291Y-116944855D01*
X111593293Y-117015359D01*
X111573214Y-117051363D01*
X111573932Y-117051747D01*
X111467796Y-117250312D01*
X111409700Y-117441828D01*
X111389130Y-117650684D01*
X111392689Y-117811979D01*
X111563710Y-117983000D01*
X113061542Y-117983000D01*
X113120852Y-117965585D01*
X113157000Y-117963000D01*
X113665000Y-117963000D01*
X113736560Y-117973289D01*
X113757824Y-117983000D01*
X115258290Y-117983000D01*
X115429310Y-117811979D01*
X115432869Y-117650684D01*
X115412299Y-117441828D01*
X115354203Y-117250312D01*
X115248068Y-117051747D01*
X115248804Y-117051353D01*
X115232106Y-117023777D01*
X115213599Y-116953890D01*
X115214550Y-116918315D01*
X122080130Y-116918315D01*
X122100700Y-117127171D01*
X122158796Y-117318687D01*
X122253138Y-117495189D01*
X122380103Y-117649896D01*
X122534810Y-117776861D01*
X122711312Y-117871203D01*
X122902828Y-117929299D01*
X123111684Y-117949869D01*
X123272979Y-117946310D01*
X123444000Y-117775290D01*
X123444000Y-116586000D01*
X122254710Y-116586000D01*
X122083689Y-116757020D01*
X122080130Y-116918315D01*
X115214550Y-116918315D01*
X115215531Y-116881620D01*
X115237746Y-116812822D01*
X115241882Y-116804740D01*
X115293299Y-116708544D01*
X115400000Y-116356800D01*
X115436027Y-115991000D01*
X115400000Y-115625199D01*
X115301877Y-115301733D01*
X115293299Y-115273457D01*
X115274178Y-115237684D01*
X122080130Y-115237684D01*
X122083689Y-115398979D01*
X122254710Y-115570000D01*
X123444000Y-115570000D01*
X123444000Y-114380710D01*
X124460000Y-114380710D01*
X124460000Y-115728541D01*
X124477415Y-115787852D01*
X124480000Y-115824000D01*
X124480000Y-116332000D01*
X124469711Y-116403560D01*
X124460000Y-116424824D01*
X124460000Y-117775290D01*
X124631020Y-117946310D01*
X124792315Y-117949869D01*
X125001171Y-117929299D01*
X125192687Y-117871203D01*
X125369192Y-117776859D01*
X125373168Y-117773597D01*
X125435012Y-117736153D01*
X125504900Y-117717650D01*
X125577170Y-117719585D01*
X125645967Y-117741803D01*
X125654038Y-117745934D01*
X125774458Y-117810300D01*
X126126199Y-117917000D01*
X126400337Y-117944000D01*
X126583663Y-117944000D01*
X126857800Y-117917000D01*
X127209541Y-117810300D01*
X127533708Y-117637029D01*
X127600864Y-117581916D01*
X127662708Y-117544472D01*
X127732596Y-117525969D01*
X127804866Y-117527904D01*
X127873663Y-117550122D01*
X127923136Y-117581916D01*
X127990291Y-117637029D01*
X128314458Y-117810300D01*
X128666199Y-117917000D01*
X128940337Y-117944000D01*
X129123663Y-117944000D01*
X129397800Y-117917000D01*
X129749541Y-117810300D01*
X130073708Y-117637029D01*
X130357844Y-117403844D01*
X130591029Y-117119708D01*
X130764300Y-116795541D01*
X130871000Y-116443800D01*
X130907027Y-116078000D01*
X130871000Y-115712199D01*
X130764300Y-115360458D01*
X130591029Y-115036291D01*
X130357844Y-114752155D01*
X130073708Y-114518970D01*
X129749541Y-114345699D01*
X129397800Y-114238999D01*
X129123663Y-114212000D01*
X128940337Y-114212000D01*
X128666199Y-114238999D01*
X128314458Y-114345699D01*
X127990291Y-114518970D01*
X127923136Y-114574084D01*
X127861292Y-114611528D01*
X127791404Y-114630031D01*
X127719134Y-114628096D01*
X127650337Y-114605878D01*
X127600864Y-114574084D01*
X127533708Y-114518970D01*
X127209541Y-114345699D01*
X126857800Y-114238999D01*
X126583663Y-114212000D01*
X126400337Y-114212000D01*
X126126199Y-114238999D01*
X125774458Y-114345699D01*
X125654038Y-114410066D01*
X125586078Y-114434725D01*
X125513923Y-114439239D01*
X125443419Y-114423242D01*
X125380278Y-114388029D01*
X125373168Y-114382403D01*
X125369192Y-114379140D01*
X125192687Y-114284796D01*
X125001171Y-114226700D01*
X124792315Y-114206130D01*
X124631020Y-114209689D01*
X124460000Y-114380710D01*
X123444000Y-114380710D01*
X123272979Y-114209689D01*
X123111684Y-114206130D01*
X122902828Y-114226700D01*
X122711312Y-114284796D01*
X122534810Y-114379138D01*
X122380103Y-114506103D01*
X122253138Y-114660810D01*
X122158796Y-114837312D01*
X122100700Y-115028828D01*
X122080130Y-115237684D01*
X115274178Y-115237684D01*
X115120029Y-114949291D01*
X114886844Y-114665155D01*
X114602708Y-114431970D01*
X114278541Y-114258699D01*
X113926800Y-114151999D01*
X113652663Y-114125000D01*
X113169337Y-114125000D01*
X112895199Y-114151999D01*
X112543458Y-114258699D01*
X112219291Y-114431970D01*
X111935155Y-114665155D01*
X111701970Y-114949291D01*
X111528699Y-115273458D01*
X111421999Y-115625199D01*
X111385972Y-115991000D01*
X109626000Y-115991000D01*
X109626000Y-110695315D01*
X111389130Y-110695315D01*
X111409700Y-110904171D01*
X111467796Y-111095687D01*
X111562138Y-111272189D01*
X111689103Y-111426896D01*
X111843810Y-111553861D01*
X112020312Y-111648203D01*
X112211828Y-111706299D01*
X112421661Y-111726965D01*
X112732785Y-111722504D01*
X112903000Y-111552290D01*
X113919000Y-111552290D01*
X114089214Y-111722504D01*
X114400338Y-111726965D01*
X114610171Y-111706299D01*
X114801687Y-111648203D01*
X114978189Y-111553861D01*
X115132896Y-111426896D01*
X115259861Y-111272189D01*
X115354203Y-111095687D01*
X115412299Y-110904171D01*
X115432869Y-110695315D01*
X115429310Y-110534020D01*
X115258290Y-110363000D01*
X113919000Y-110363000D01*
X113919000Y-111552290D01*
X112903000Y-111552290D01*
X112903000Y-110363000D01*
X111563710Y-110363000D01*
X111392689Y-110534020D01*
X111389130Y-110695315D01*
X109626000Y-110695315D01*
X109626000Y-107355000D01*
X111385972Y-107355000D01*
X111421999Y-107720800D01*
X111528700Y-108072544D01*
X111580118Y-108168740D01*
X111604777Y-108236700D01*
X111609291Y-108308855D01*
X111593293Y-108379359D01*
X111573214Y-108415363D01*
X111573932Y-108415747D01*
X111467796Y-108614312D01*
X111409700Y-108805828D01*
X111389130Y-109014684D01*
X111392689Y-109175979D01*
X111563710Y-109347000D01*
X113061542Y-109347000D01*
X113120852Y-109329585D01*
X113157000Y-109327000D01*
X113665000Y-109327000D01*
X113736560Y-109337289D01*
X113757824Y-109347000D01*
X115258290Y-109347000D01*
X115429310Y-109175979D01*
X115432869Y-109014684D01*
X115412299Y-108805828D01*
X115354203Y-108614312D01*
X115248068Y-108415747D01*
X115248804Y-108415353D01*
X115232099Y-108387761D01*
X115213597Y-108317873D01*
X115215534Y-108245603D01*
X115237754Y-108176806D01*
X115241882Y-108168740D01*
X115293299Y-108072544D01*
X115400000Y-107720800D01*
X115436027Y-107355000D01*
X115400000Y-106989199D01*
X115293300Y-106637458D01*
X115120029Y-106313291D01*
X114886844Y-106029155D01*
X114602708Y-105795970D01*
X114278541Y-105622699D01*
X113926800Y-105515999D01*
X113652663Y-105489000D01*
X113169337Y-105489000D01*
X112895199Y-105515999D01*
X112543458Y-105622699D01*
X112219291Y-105795970D01*
X111935155Y-106029155D01*
X111701970Y-106313291D01*
X111528699Y-106637458D01*
X111421999Y-106989199D01*
X111385972Y-107355000D01*
X109626000Y-107355000D01*
X109626000Y-104775895D01*
X120379088Y-104775895D01*
X120399700Y-104985171D01*
X120457796Y-105176687D01*
X120552138Y-105353189D01*
X120679103Y-105507896D01*
X120833810Y-105634861D01*
X121010312Y-105729203D01*
X121201828Y-105787299D01*
X121411104Y-105807911D01*
X121622330Y-105803959D01*
X121793000Y-105633290D01*
X121793000Y-104394000D01*
X120553710Y-104394000D01*
X120383040Y-104564669D01*
X120379088Y-104775895D01*
X109626000Y-104775895D01*
X109626000Y-103560416D01*
X109636289Y-103488856D01*
X109666322Y-103423093D01*
X109713665Y-103368456D01*
X109774485Y-103329369D01*
X109843852Y-103309001D01*
X109916148Y-103309001D01*
X109953732Y-103317353D01*
X110091515Y-103359149D01*
X110374000Y-103386971D01*
X110656485Y-103359148D01*
X110928115Y-103276752D01*
X111178449Y-103142945D01*
X111397873Y-102962867D01*
X111564287Y-102760094D01*
X111617637Y-102711304D01*
X111682573Y-102679522D01*
X111753832Y-102667321D01*
X111825641Y-102675691D01*
X111892185Y-102703952D01*
X111948070Y-102749816D01*
X111988770Y-102809567D01*
X111995296Y-102824028D01*
X112026433Y-102899199D01*
X112183586Y-103134397D01*
X112383602Y-103334413D01*
X112618800Y-103491566D01*
X112880135Y-103599815D01*
X113157565Y-103655000D01*
X113440435Y-103655000D01*
X113717866Y-103599815D01*
X113851799Y-103544339D01*
X113921849Y-103526459D01*
X113994099Y-103529040D01*
X114046201Y-103544339D01*
X114180133Y-103599815D01*
X114457565Y-103655000D01*
X114740435Y-103655000D01*
X115017864Y-103599815D01*
X115279199Y-103491566D01*
X115514397Y-103334413D01*
X115714413Y-103134397D01*
X115871566Y-102899200D01*
X115902705Y-102824026D01*
X115939596Y-102761851D01*
X115992509Y-102712587D01*
X116057158Y-102680227D01*
X116128305Y-102667391D01*
X116200187Y-102675119D01*
X116266980Y-102702786D01*
X116323272Y-102748150D01*
X116333715Y-102760093D01*
X116500130Y-102962870D01*
X116719551Y-103142945D01*
X116969885Y-103276752D01*
X117241515Y-103359149D01*
X117524000Y-103386971D01*
X117806485Y-103359148D01*
X118078115Y-103276752D01*
X118328449Y-103142945D01*
X118507374Y-102996104D01*
X120379088Y-102996104D01*
X120383040Y-103207330D01*
X120553710Y-103378000D01*
X121793000Y-103378000D01*
X121793000Y-102138710D01*
X122809000Y-102138710D01*
X122809000Y-103536541D01*
X122826415Y-103595852D01*
X122829000Y-103632000D01*
X122829000Y-104140000D01*
X122818711Y-104211560D01*
X122809000Y-104232824D01*
X122809000Y-105633290D01*
X122979669Y-105803959D01*
X123190895Y-105807911D01*
X123400171Y-105787299D01*
X123591687Y-105729203D01*
X123788063Y-105624238D01*
X123856023Y-105599579D01*
X123928178Y-105595065D01*
X123998682Y-105611062D01*
X124005000Y-105613581D01*
X124282124Y-105728369D01*
X124652289Y-105802000D01*
X125029711Y-105802000D01*
X125399875Y-105728369D01*
X125748566Y-105583937D01*
X126062379Y-105374254D01*
X126329254Y-105107379D01*
X126538937Y-104793566D01*
X126683369Y-104444875D01*
X126757000Y-104074711D01*
X126757000Y-103697288D01*
X126683369Y-103327124D01*
X126538937Y-102978433D01*
X126329254Y-102664620D01*
X126062379Y-102397745D01*
X125748566Y-102188062D01*
X125399875Y-102043630D01*
X125029711Y-101970000D01*
X124652289Y-101970000D01*
X124282124Y-102043630D01*
X124005000Y-102158419D01*
X123934949Y-102176299D01*
X123862700Y-102173718D01*
X123794103Y-102150887D01*
X123788063Y-102147762D01*
X123591687Y-102042796D01*
X123400171Y-101984700D01*
X123190895Y-101964088D01*
X122979669Y-101968040D01*
X122809000Y-102138710D01*
X121793000Y-102138710D01*
X121622330Y-101968040D01*
X121411104Y-101964088D01*
X121201828Y-101984700D01*
X121010312Y-102042796D01*
X120833810Y-102137138D01*
X120679103Y-102264103D01*
X120552138Y-102418810D01*
X120457796Y-102595312D01*
X120399700Y-102786828D01*
X120379088Y-102996104D01*
X118507374Y-102996104D01*
X118547872Y-102962868D01*
X118661129Y-102824865D01*
X118661130Y-102824863D01*
X118727945Y-102743449D01*
X118861752Y-102493115D01*
X118944148Y-102221485D01*
X118965000Y-102009785D01*
X118965000Y-100965000D01*
X127410972Y-100965000D01*
X127446999Y-101330800D01*
X127553699Y-101682541D01*
X127726970Y-102006708D01*
X127782084Y-102073864D01*
X127819528Y-102135708D01*
X127838031Y-102205596D01*
X127836096Y-102277866D01*
X127813878Y-102346663D01*
X127782084Y-102396136D01*
X127726970Y-102463291D01*
X127553699Y-102787458D01*
X127446999Y-103139199D01*
X127410972Y-103505000D01*
X127446999Y-103870800D01*
X127553699Y-104222541D01*
X127726970Y-104546708D01*
X127782084Y-104613864D01*
X127819528Y-104675708D01*
X127838031Y-104745596D01*
X127836096Y-104817866D01*
X127813878Y-104886663D01*
X127782084Y-104936136D01*
X127726970Y-105003291D01*
X127553699Y-105327458D01*
X127446999Y-105679199D01*
X127410972Y-106045000D01*
X127446999Y-106410800D01*
X127553699Y-106762541D01*
X127726970Y-107086708D01*
X127782084Y-107153864D01*
X127819528Y-107215708D01*
X127838031Y-107285596D01*
X127836096Y-107357866D01*
X127813878Y-107426663D01*
X127782084Y-107476136D01*
X127726970Y-107543291D01*
X127553699Y-107867458D01*
X127446999Y-108219199D01*
X127410972Y-108585000D01*
X127446999Y-108950800D01*
X127553699Y-109302541D01*
X127726970Y-109626708D01*
X127782084Y-109693864D01*
X127819528Y-109755708D01*
X127838031Y-109825596D01*
X127836096Y-109897866D01*
X127813878Y-109966663D01*
X127782084Y-110016136D01*
X127726970Y-110083291D01*
X127553699Y-110407458D01*
X127446999Y-110759199D01*
X127410972Y-111125000D01*
X127446999Y-111490800D01*
X127553699Y-111842541D01*
X127726970Y-112166708D01*
X127960155Y-112450844D01*
X128244291Y-112684029D01*
X128568458Y-112857300D01*
X128920199Y-112964000D01*
X129194337Y-112991000D01*
X129377663Y-112991000D01*
X129651800Y-112964000D01*
X130003541Y-112857300D01*
X130327708Y-112684029D01*
X130611844Y-112450844D01*
X130845029Y-112166708D01*
X131018300Y-111842541D01*
X131125000Y-111490800D01*
X131161027Y-111125000D01*
X131125000Y-110759199D01*
X131018300Y-110407458D01*
X130845029Y-110083291D01*
X130789916Y-110016136D01*
X130752472Y-109954292D01*
X130733969Y-109884404D01*
X130735904Y-109812134D01*
X130758122Y-109743337D01*
X130789916Y-109693864D01*
X130845029Y-109626708D01*
X131018300Y-109302541D01*
X131125000Y-108950800D01*
X131161027Y-108585000D01*
X131125000Y-108219199D01*
X131018300Y-107867458D01*
X130845029Y-107543291D01*
X130789916Y-107476136D01*
X130752472Y-107414292D01*
X130733969Y-107344404D01*
X130735904Y-107272134D01*
X130758122Y-107203337D01*
X130789916Y-107153864D01*
X130845029Y-107086708D01*
X131018300Y-106762541D01*
X131125000Y-106410800D01*
X131161027Y-106045000D01*
X131125000Y-105679199D01*
X131018300Y-105327458D01*
X130845029Y-105003291D01*
X130789916Y-104936136D01*
X130752472Y-104874292D01*
X130733969Y-104804404D01*
X130735904Y-104732134D01*
X130758122Y-104663337D01*
X130789916Y-104613864D01*
X130845029Y-104546708D01*
X131018300Y-104222541D01*
X131125000Y-103870800D01*
X131161027Y-103505000D01*
X131125000Y-103139199D01*
X131018300Y-102787458D01*
X130845029Y-102463291D01*
X130789916Y-102396136D01*
X130752472Y-102334292D01*
X130733969Y-102264404D01*
X130735904Y-102192134D01*
X130758122Y-102123337D01*
X130789916Y-102073864D01*
X130845029Y-102006708D01*
X131018300Y-101682541D01*
X131125000Y-101330800D01*
X131161027Y-100965000D01*
X131125000Y-100599199D01*
X131018299Y-100247455D01*
X130953934Y-100127036D01*
X130929275Y-100059076D01*
X130924761Y-99986921D01*
X130940759Y-99916417D01*
X130975971Y-99853276D01*
X130981596Y-99846168D01*
X130984859Y-99842190D01*
X131079201Y-99665689D01*
X131137298Y-99474170D01*
X131158144Y-99262520D01*
X131158144Y-97587479D01*
X131137298Y-97375829D01*
X131079201Y-97184310D01*
X130984859Y-97007809D01*
X130857896Y-96853103D01*
X130703190Y-96726140D01*
X130526689Y-96631798D01*
X130335170Y-96573701D01*
X130123520Y-96552856D01*
X128448480Y-96552856D01*
X128236829Y-96573701D01*
X128045310Y-96631798D01*
X127868809Y-96726140D01*
X127714103Y-96853103D01*
X127587140Y-97007809D01*
X127492798Y-97184310D01*
X127434701Y-97375829D01*
X127413856Y-97587479D01*
X127413856Y-99262520D01*
X127434701Y-99474170D01*
X127492798Y-99665689D01*
X127587140Y-99842190D01*
X127590404Y-99846168D01*
X127627847Y-99908012D01*
X127646351Y-99977900D01*
X127644414Y-100050170D01*
X127622196Y-100118967D01*
X127618066Y-100127036D01*
X127553700Y-100247455D01*
X127446999Y-100599199D01*
X127410972Y-100965000D01*
X118965000Y-100965000D01*
X118965000Y-100868214D01*
X118944148Y-100656514D01*
X118861752Y-100384884D01*
X118727945Y-100134550D01*
X118547870Y-99915129D01*
X118328448Y-99735054D01*
X118078114Y-99601247D01*
X117806484Y-99518850D01*
X117523999Y-99491028D01*
X117241514Y-99518851D01*
X116969884Y-99601247D01*
X116719550Y-99735054D01*
X116500129Y-99915129D01*
X116304185Y-100153889D01*
X116303516Y-100153340D01*
X116284550Y-100179154D01*
X116227064Y-100222995D01*
X116159555Y-100248865D01*
X116087492Y-100254668D01*
X116016714Y-100239933D01*
X115952954Y-100205854D01*
X115901378Y-100155193D01*
X115866163Y-100092053D01*
X115850164Y-100021549D01*
X115849392Y-99996288D01*
X115850947Y-99915252D01*
X115722116Y-99855819D01*
X115447081Y-99789712D01*
X115164437Y-99778530D01*
X114885039Y-99822707D01*
X114684860Y-99896496D01*
X114614158Y-99911593D01*
X114542067Y-99906158D01*
X114499810Y-99892838D01*
X114367862Y-99838183D01*
X114090435Y-99783000D01*
X113807565Y-99783000D01*
X113514920Y-99841211D01*
X113442728Y-99845081D01*
X113391634Y-99835155D01*
X113268168Y-99797701D01*
X113056520Y-99776856D01*
X112241480Y-99776856D01*
X112029829Y-99797701D01*
X111838313Y-99855797D01*
X111677485Y-99941762D01*
X111609524Y-99966421D01*
X111537369Y-99970935D01*
X111466865Y-99954937D01*
X111403725Y-99919725D01*
X111396614Y-99914099D01*
X111178448Y-99735054D01*
X110928114Y-99601247D01*
X110656484Y-99518850D01*
X110373999Y-99491028D01*
X110091512Y-99518851D01*
X109953731Y-99560646D01*
X109882266Y-99571573D01*
X109810617Y-99561923D01*
X109744589Y-99532478D01*
X109689531Y-99485623D01*
X109649904Y-99425155D01*
X109628918Y-99355972D01*
X109626000Y-99317583D01*
X109626000Y-95885000D01*
X118647972Y-95885000D01*
X118683999Y-96250800D01*
X118790699Y-96602541D01*
X118963970Y-96926708D01*
X119197155Y-97210844D01*
X119481291Y-97444029D01*
X119805458Y-97617300D01*
X120157199Y-97724000D01*
X120431337Y-97751000D01*
X120614663Y-97751000D01*
X120888800Y-97724000D01*
X121240541Y-97617300D01*
X121564708Y-97444029D01*
X121848844Y-97210844D01*
X122082029Y-96926708D01*
X122255300Y-96602541D01*
X122362000Y-96250800D01*
X122398027Y-95885000D01*
X122362000Y-95519199D01*
X122255299Y-95167455D01*
X122190934Y-95047036D01*
X122166275Y-94979076D01*
X122161761Y-94906921D01*
X122177759Y-94836417D01*
X122212971Y-94773276D01*
X122218596Y-94766168D01*
X122221859Y-94762190D01*
X122316201Y-94585689D01*
X122374298Y-94394170D01*
X122395144Y-94182520D01*
X122395144Y-93218000D01*
X123143214Y-93218000D01*
X123178276Y-93573996D01*
X123282118Y-93916316D01*
X123450747Y-94231798D01*
X123677680Y-94508319D01*
X123954201Y-94735252D01*
X124269683Y-94903881D01*
X124612003Y-95007723D01*
X124878795Y-95034000D01*
X125057205Y-95034000D01*
X125323996Y-95007723D01*
X125666316Y-94903881D01*
X125981798Y-94735252D01*
X126258319Y-94508319D01*
X126485252Y-94231798D01*
X126653882Y-93916314D01*
X126676127Y-93842982D01*
X127661124Y-93842982D01*
X127783905Y-94125440D01*
X127992243Y-94425828D01*
X128255175Y-94679793D01*
X128562607Y-94877588D01*
X128791789Y-94967893D01*
X128905000Y-94880465D01*
X128905000Y-93726000D01*
X127752439Y-93726000D01*
X127661124Y-93842982D01*
X126676127Y-93842982D01*
X126712101Y-93724393D01*
X126712101Y-93724392D01*
X126757723Y-93573996D01*
X126792785Y-93218000D01*
X126757723Y-92862003D01*
X126653881Y-92519683D01*
X126485252Y-92204201D01*
X126258319Y-91927680D01*
X125981798Y-91700747D01*
X125666316Y-91532118D01*
X125323996Y-91428276D01*
X125057205Y-91402000D01*
X124878795Y-91402000D01*
X124612003Y-91428276D01*
X124269683Y-91532118D01*
X123954201Y-91700747D01*
X123677680Y-91927680D01*
X123450747Y-92204201D01*
X123282118Y-92519683D01*
X123178276Y-92862003D01*
X123143214Y-93218000D01*
X122395144Y-93218000D01*
X122395144Y-92507479D01*
X122374298Y-92295829D01*
X122316201Y-92104310D01*
X122221859Y-91927809D01*
X122094896Y-91773103D01*
X121940190Y-91646140D01*
X121763689Y-91551798D01*
X121572170Y-91493701D01*
X121360520Y-91472856D01*
X119685480Y-91472856D01*
X119473829Y-91493701D01*
X119282310Y-91551798D01*
X119105809Y-91646140D01*
X118951103Y-91773103D01*
X118824140Y-91927809D01*
X118729798Y-92104310D01*
X118671701Y-92295829D01*
X118650856Y-92507479D01*
X118650856Y-94182520D01*
X118671701Y-94394170D01*
X118729798Y-94585689D01*
X118824140Y-94762190D01*
X118827404Y-94766168D01*
X118864847Y-94828012D01*
X118883351Y-94897900D01*
X118881414Y-94970170D01*
X118859196Y-95038967D01*
X118855066Y-95047036D01*
X118790700Y-95167455D01*
X118683999Y-95519199D01*
X118647972Y-95885000D01*
X109626000Y-95885000D01*
X109626000Y-82402022D01*
X109634244Y-82344684D01*
X118651130Y-82344684D01*
X118654689Y-82505979D01*
X118825710Y-82677000D01*
X120015000Y-82677000D01*
X120015000Y-81487710D01*
X119843979Y-81316689D01*
X119682684Y-81313130D01*
X119473828Y-81333700D01*
X119282312Y-81391796D01*
X119105810Y-81486138D01*
X118951103Y-81613103D01*
X118824138Y-81767810D01*
X118729796Y-81944312D01*
X118671700Y-82135828D01*
X118651130Y-82344684D01*
X109634244Y-82344684D01*
X109636289Y-82330462D01*
X109666322Y-82264699D01*
X109713665Y-82210062D01*
X109774485Y-82170975D01*
X109843852Y-82150607D01*
X109916148Y-82150607D01*
X109985515Y-82170975D01*
X109999732Y-82178013D01*
X110011309Y-82184200D01*
X110202829Y-82242298D01*
X110414480Y-82263144D01*
X112089520Y-82263144D01*
X112301168Y-82242298D01*
X112448267Y-82197676D01*
X112519732Y-82186749D01*
X112591381Y-82196399D01*
X112595733Y-82197676D01*
X112742831Y-82242298D01*
X112954480Y-82263144D01*
X114629520Y-82263144D01*
X114841170Y-82242298D01*
X115032689Y-82184201D01*
X115169655Y-82110992D01*
X115169655Y-82110991D01*
X115209194Y-82089856D01*
X115363896Y-81962896D01*
X115490859Y-81808190D01*
X115585201Y-81631689D01*
X115643298Y-81440170D01*
X115664144Y-81228520D01*
X115664144Y-79553479D01*
X115643298Y-79341829D01*
X115585201Y-79150310D01*
X115490859Y-78973808D01*
X115482540Y-78963671D01*
X115445096Y-78901827D01*
X115426593Y-78831939D01*
X115428530Y-78759669D01*
X115445942Y-78701280D01*
X115543875Y-78475982D01*
X115452561Y-78359000D01*
X114141458Y-78359000D01*
X114082148Y-78376415D01*
X114046000Y-78379000D01*
X113538000Y-78379000D01*
X113466440Y-78368711D01*
X113445176Y-78359000D01*
X111601458Y-78359000D01*
X111542148Y-78376415D01*
X111506000Y-78379000D01*
X110998000Y-78379000D01*
X110926440Y-78368711D01*
X110860677Y-78338678D01*
X110806040Y-78291335D01*
X110802167Y-78285309D01*
X110786040Y-78271335D01*
X110746953Y-78210515D01*
X110726585Y-78141148D01*
X110724000Y-78105000D01*
X110724000Y-77597000D01*
X110734289Y-77525440D01*
X110764322Y-77459677D01*
X110811665Y-77405040D01*
X110817690Y-77401167D01*
X110831665Y-77385040D01*
X110892485Y-77345953D01*
X110961852Y-77325585D01*
X110998000Y-77323000D01*
X111506000Y-77323000D01*
X111577560Y-77333289D01*
X111598824Y-77343000D01*
X113442542Y-77343000D01*
X113501852Y-77325585D01*
X113538000Y-77323000D01*
X114046000Y-77323000D01*
X114117560Y-77333289D01*
X114138824Y-77343000D01*
X115452561Y-77343000D01*
X115543875Y-77226017D01*
X115421093Y-76943556D01*
X115276224Y-76734679D01*
X115243896Y-76670014D01*
X115231095Y-76598861D01*
X115238860Y-76526983D01*
X115266560Y-76460204D01*
X115288593Y-76428787D01*
X115351029Y-76352708D01*
X115506384Y-76062060D01*
X115549191Y-76003800D01*
X115606678Y-75959960D01*
X115674187Y-75934091D01*
X115746250Y-75928291D01*
X115817028Y-75943027D01*
X115827593Y-75947130D01*
X116045966Y-76037583D01*
X116319535Y-76092000D01*
X116598464Y-76092000D01*
X116647056Y-76082334D01*
X116719249Y-76078464D01*
X116789607Y-76095089D01*
X116852431Y-76130864D01*
X116902632Y-76182889D01*
X116936142Y-76246949D01*
X116939673Y-76257720D01*
X116951796Y-76297685D01*
X117046140Y-76474190D01*
X117173101Y-76628893D01*
X117184997Y-76638656D01*
X117233786Y-76692007D01*
X117265568Y-76756942D01*
X117277769Y-76828201D01*
X117269399Y-76900011D01*
X117241138Y-76966554D01*
X117195273Y-77022439D01*
X117184997Y-77031344D01*
X117173101Y-77041106D01*
X117046140Y-77195809D01*
X116951798Y-77372310D01*
X116893701Y-77563829D01*
X116872856Y-77775479D01*
X116872856Y-79450520D01*
X116893701Y-79662170D01*
X116951798Y-79853689D01*
X117046140Y-80030190D01*
X117173103Y-80184896D01*
X117327809Y-80311859D01*
X117504310Y-80406201D01*
X117695829Y-80464298D01*
X117907480Y-80485144D01*
X119582520Y-80485144D01*
X119794170Y-80464298D01*
X119985689Y-80406201D01*
X120162191Y-80311859D01*
X120172329Y-80303540D01*
X120234173Y-80266096D01*
X120304061Y-80247593D01*
X120376331Y-80249530D01*
X120434720Y-80266942D01*
X120660017Y-80364875D01*
X120777000Y-80273561D01*
X120777000Y-78962458D01*
X120759585Y-78903148D01*
X120757000Y-78867000D01*
X120757000Y-78359000D01*
X120767289Y-78287440D01*
X120777000Y-78266175D01*
X120777000Y-75406458D01*
X120759585Y-75347148D01*
X120757000Y-75311000D01*
X120757000Y-74803000D01*
X120767289Y-74731440D01*
X120777000Y-74710175D01*
X120777000Y-73396438D01*
X120660017Y-73305124D01*
X120434720Y-73403058D01*
X120364991Y-73422150D01*
X120292707Y-73420823D01*
X120223725Y-73399185D01*
X120172329Y-73366460D01*
X120162191Y-73358140D01*
X119985689Y-73263798D01*
X119794170Y-73205701D01*
X119582520Y-73184856D01*
X118072412Y-73184856D01*
X118000852Y-73174567D01*
X117935089Y-73144534D01*
X117880452Y-73097191D01*
X117841365Y-73036371D01*
X117829349Y-73004589D01*
X117750333Y-72744111D01*
X117712690Y-72673685D01*
X117621170Y-72502463D01*
X117504759Y-72360616D01*
X117467315Y-72298772D01*
X117448812Y-72228884D01*
X117450747Y-72156614D01*
X117472965Y-72087817D01*
X117513666Y-72028066D01*
X117569551Y-71982202D01*
X117636094Y-71953940D01*
X117676206Y-71946703D01*
X117713800Y-71943000D01*
X118065541Y-71836300D01*
X118389708Y-71663029D01*
X118456864Y-71607916D01*
X118518708Y-71570472D01*
X118588596Y-71551969D01*
X118660866Y-71553904D01*
X118729663Y-71576122D01*
X118779136Y-71607916D01*
X118846291Y-71663029D01*
X119170458Y-71836300D01*
X119522199Y-71943000D01*
X119796337Y-71970000D01*
X119979663Y-71970000D01*
X120253800Y-71943000D01*
X120605541Y-71836300D01*
X120929708Y-71663029D01*
X120996864Y-71607916D01*
X121058708Y-71570472D01*
X121128596Y-71551969D01*
X121200866Y-71553904D01*
X121269663Y-71576122D01*
X121319136Y-71607916D01*
X121386291Y-71663029D01*
X121710458Y-71836300D01*
X122062199Y-71943000D01*
X122336337Y-71970000D01*
X122519665Y-71970000D01*
X122546420Y-71967365D01*
X122618644Y-71970590D01*
X122687034Y-71994033D01*
X122746048Y-72035794D01*
X122750920Y-72040537D01*
X123519530Y-72809147D01*
X123562855Y-72867023D01*
X123588120Y-72934760D01*
X123593278Y-73006872D01*
X123577910Y-73077516D01*
X123543262Y-73140969D01*
X123492142Y-73192089D01*
X123428689Y-73226737D01*
X123413658Y-73231815D01*
X123107457Y-73324700D01*
X122783291Y-73497970D01*
X122707213Y-73560407D01*
X122645369Y-73597850D01*
X122575481Y-73616354D01*
X122503211Y-73614419D01*
X122434414Y-73592201D01*
X122401321Y-73572776D01*
X122192443Y-73427906D01*
X121909982Y-73305124D01*
X121793000Y-73396438D01*
X121793000Y-74707541D01*
X121810415Y-74766852D01*
X121813000Y-74803000D01*
X121813000Y-75311000D01*
X121802711Y-75382560D01*
X121793000Y-75403824D01*
X121793000Y-78263541D01*
X121810415Y-78322852D01*
X121813000Y-78359000D01*
X121813000Y-78867000D01*
X121802711Y-78938560D01*
X121793000Y-78959824D01*
X121793000Y-80310957D01*
X121805045Y-80334116D01*
X121818983Y-80405055D01*
X121812370Y-80477048D01*
X121785743Y-80544262D01*
X121761660Y-80579192D01*
X121660784Y-80702109D01*
X121596670Y-80822059D01*
X121554836Y-80900325D01*
X121538778Y-80953263D01*
X121538778Y-80953265D01*
X121483493Y-81135513D01*
X121452874Y-81201005D01*
X121405044Y-81255218D01*
X121343878Y-81293759D01*
X121274332Y-81313507D01*
X121246033Y-81315718D01*
X121202020Y-81316689D01*
X121031000Y-81487710D01*
X121031000Y-82835541D01*
X121048415Y-82894852D01*
X121051000Y-82931000D01*
X121051000Y-83439000D01*
X121040711Y-83510560D01*
X121010678Y-83576323D01*
X120963335Y-83630960D01*
X120957309Y-83634832D01*
X120943335Y-83650960D01*
X120882515Y-83690047D01*
X120813148Y-83710415D01*
X120777000Y-83713000D01*
X120269000Y-83713000D01*
X120197440Y-83702711D01*
X120176176Y-83693000D01*
X118825710Y-83693000D01*
X118654689Y-83864020D01*
X118651130Y-84025315D01*
X118671700Y-84234171D01*
X118729796Y-84425687D01*
X118824140Y-84602192D01*
X118827403Y-84606168D01*
X118864847Y-84668012D01*
X118883350Y-84737900D01*
X118881415Y-84810170D01*
X118859197Y-84878967D01*
X118855066Y-84887038D01*
X118790699Y-85007458D01*
X118683999Y-85359199D01*
X118647972Y-85725000D01*
X118683999Y-86090800D01*
X118790699Y-86442541D01*
X118963970Y-86766708D01*
X119019084Y-86833864D01*
X119056528Y-86895708D01*
X119075031Y-86965596D01*
X119073096Y-87037866D01*
X119050878Y-87106663D01*
X119019084Y-87156136D01*
X118963970Y-87223291D01*
X118790699Y-87547458D01*
X118683999Y-87899199D01*
X118647972Y-88265000D01*
X118683999Y-88630800D01*
X118790699Y-88982541D01*
X118963970Y-89306708D01*
X119197155Y-89590844D01*
X119481291Y-89824029D01*
X119805458Y-89997300D01*
X120157199Y-90104000D01*
X120431337Y-90131000D01*
X120614663Y-90131000D01*
X120888800Y-90104000D01*
X121240541Y-89997300D01*
X121564708Y-89824029D01*
X121848844Y-89590844D01*
X122082029Y-89306708D01*
X122255300Y-88982541D01*
X122362000Y-88630800D01*
X122398027Y-88265000D01*
X122362000Y-87899199D01*
X122255300Y-87547458D01*
X122082029Y-87223291D01*
X122050998Y-87185480D01*
X122013554Y-87123636D01*
X121995051Y-87053748D01*
X121996986Y-86981478D01*
X122019204Y-86912681D01*
X122059904Y-86852930D01*
X122115790Y-86807066D01*
X122148103Y-86792655D01*
X122362053Y-86678296D01*
X122535793Y-86535712D01*
X122563607Y-86501821D01*
X122580346Y-86483352D01*
X123372437Y-85691261D01*
X123390906Y-85674522D01*
X123424791Y-85646713D01*
X123459143Y-85604856D01*
X123567377Y-85472972D01*
X123673325Y-85274757D01*
X123738571Y-85059673D01*
X123756304Y-84879628D01*
X123756601Y-84876608D01*
X123773847Y-84806399D01*
X123810174Y-84743893D01*
X123862640Y-84694153D01*
X123926994Y-84661210D01*
X123998023Y-84647732D01*
X124069971Y-84654811D01*
X124106582Y-84666813D01*
X124438293Y-84804212D01*
X124789138Y-84874000D01*
X125146862Y-84874000D01*
X125497706Y-84804212D01*
X125828198Y-84667318D01*
X126125632Y-84468579D01*
X126193817Y-84400395D01*
X126251693Y-84357070D01*
X126319430Y-84331805D01*
X126373422Y-84326000D01*
X127303403Y-84326000D01*
X127374963Y-84336289D01*
X127440726Y-84366322D01*
X127495363Y-84413665D01*
X127534450Y-84474485D01*
X127554818Y-84543852D01*
X127556180Y-84604897D01*
X127540856Y-84760480D01*
X127540856Y-86435520D01*
X127561701Y-86647170D01*
X127619798Y-86838689D01*
X127714140Y-87015190D01*
X127717404Y-87019168D01*
X127754847Y-87081012D01*
X127773351Y-87150900D01*
X127771414Y-87223170D01*
X127749196Y-87291967D01*
X127745066Y-87300036D01*
X127680700Y-87420455D01*
X127573999Y-87772199D01*
X127537972Y-88138000D01*
X127573999Y-88503800D01*
X127680699Y-88855541D01*
X127853970Y-89179708D01*
X127909084Y-89246864D01*
X127946528Y-89308708D01*
X127965031Y-89378596D01*
X127963096Y-89450866D01*
X127940878Y-89519663D01*
X127909084Y-89569136D01*
X127853970Y-89636291D01*
X127680699Y-89960458D01*
X127573999Y-90312199D01*
X127537972Y-90678000D01*
X127573999Y-91043800D01*
X127680699Y-91395541D01*
X127853970Y-91719708D01*
X127916407Y-91795787D01*
X127953850Y-91857631D01*
X127972354Y-91927519D01*
X127970419Y-91999789D01*
X127948201Y-92068586D01*
X127928776Y-92101679D01*
X127783906Y-92310556D01*
X127661124Y-92593017D01*
X127752439Y-92710000D01*
X129063542Y-92710000D01*
X129122852Y-92692585D01*
X129159000Y-92690000D01*
X129667000Y-92690000D01*
X129738560Y-92700289D01*
X129804323Y-92730322D01*
X129858960Y-92777665D01*
X129862832Y-92783690D01*
X129878960Y-92797665D01*
X129918047Y-92858485D01*
X129938415Y-92927852D01*
X129941000Y-92964000D01*
X129941000Y-93472000D01*
X129930711Y-93543560D01*
X129921000Y-93564824D01*
X129921000Y-94880465D01*
X130034210Y-94967893D01*
X130263392Y-94877588D01*
X130307315Y-94849329D01*
X130373062Y-94819263D01*
X130444617Y-94808937D01*
X130516182Y-94819189D01*
X130581960Y-94849188D01*
X130636622Y-94896504D01*
X130675739Y-94957303D01*
X130696143Y-95026660D01*
X130697524Y-95038039D01*
X130705318Y-95117178D01*
X130777709Y-95355819D01*
X130831618Y-95456674D01*
X130831618Y-95456675D01*
X130895267Y-95575754D01*
X130912591Y-95596864D01*
X130912592Y-95596864D01*
X131053472Y-95768527D01*
X131092130Y-95800253D01*
X131110599Y-95816993D01*
X131894007Y-96600401D01*
X131910747Y-96618870D01*
X131942472Y-96657527D01*
X131981130Y-96689253D01*
X131981143Y-96689265D01*
X132135242Y-96815731D01*
X132355179Y-96933290D01*
X132596323Y-97006440D01*
X132661815Y-97037059D01*
X132716028Y-97084888D01*
X132754570Y-97146054D01*
X132774318Y-97215600D01*
X132773673Y-97287893D01*
X132752687Y-97357076D01*
X132746599Y-97369238D01*
X132633699Y-97580458D01*
X132526999Y-97932199D01*
X132490972Y-98298000D01*
X132526999Y-98663800D01*
X132633699Y-99015541D01*
X132806970Y-99339708D01*
X132862084Y-99406864D01*
X132899528Y-99468708D01*
X132918031Y-99538596D01*
X132916096Y-99610866D01*
X132893878Y-99679663D01*
X132862084Y-99729136D01*
X132806970Y-99796291D01*
X132633699Y-100120458D01*
X132526999Y-100472199D01*
X132490972Y-100838000D01*
X132526999Y-101203800D01*
X132633699Y-101555541D01*
X132806970Y-101879708D01*
X132862084Y-101946864D01*
X132899528Y-102008708D01*
X132918031Y-102078596D01*
X132916096Y-102150866D01*
X132893878Y-102219663D01*
X132862084Y-102269136D01*
X132806970Y-102336291D01*
X132633699Y-102660458D01*
X132526999Y-103012199D01*
X132490972Y-103378000D01*
X132526999Y-103743800D01*
X132633699Y-104095541D01*
X132806970Y-104419708D01*
X132869407Y-104495787D01*
X132906850Y-104557631D01*
X132925354Y-104627519D01*
X132923419Y-104699789D01*
X132901201Y-104768586D01*
X132881776Y-104801679D01*
X132736906Y-105010556D01*
X132614124Y-105293017D01*
X132705439Y-105410000D01*
X134016542Y-105410000D01*
X134075852Y-105392585D01*
X134112000Y-105390000D01*
X134620000Y-105390000D01*
X134691560Y-105400289D01*
X134757323Y-105430322D01*
X134811960Y-105477665D01*
X134815832Y-105483690D01*
X134831960Y-105497665D01*
X134871047Y-105558485D01*
X134891415Y-105627852D01*
X134894000Y-105664000D01*
X134894000Y-106172000D01*
X134883711Y-106243560D01*
X134853678Y-106309323D01*
X134806335Y-106363960D01*
X134800309Y-106367832D01*
X134786335Y-106383960D01*
X134725515Y-106423047D01*
X134656148Y-106443415D01*
X134620000Y-106446000D01*
X134112000Y-106446000D01*
X134040440Y-106435711D01*
X134019176Y-106426000D01*
X132705439Y-106426000D01*
X132614124Y-106542982D01*
X132736906Y-106825443D01*
X132881776Y-107034321D01*
X132914104Y-107098986D01*
X132926905Y-107170139D01*
X132919140Y-107242017D01*
X132891440Y-107308796D01*
X132869407Y-107340213D01*
X132806970Y-107416291D01*
X132633699Y-107740458D01*
X132526999Y-108092199D01*
X132490972Y-108458000D01*
X132526999Y-108823800D01*
X132633699Y-109175541D01*
X132806970Y-109499708D01*
X132862084Y-109566864D01*
X132899528Y-109628708D01*
X132918031Y-109698596D01*
X132916096Y-109770866D01*
X132893878Y-109839663D01*
X132862084Y-109889136D01*
X132806970Y-109956291D01*
X132633699Y-110280458D01*
X132526999Y-110632199D01*
X132490972Y-110998000D01*
X132526999Y-111363800D01*
X132633699Y-111715541D01*
X132806970Y-112039708D01*
X132862084Y-112106864D01*
X132899528Y-112168708D01*
X132918031Y-112238596D01*
X132916096Y-112310866D01*
X132893878Y-112379663D01*
X132862084Y-112429136D01*
X132806970Y-112496291D01*
X132633699Y-112820458D01*
X132526999Y-113172199D01*
X132490972Y-113538000D01*
X132526999Y-113903800D01*
X132633699Y-114255541D01*
X132806970Y-114579708D01*
X132862084Y-114646864D01*
X132899528Y-114708708D01*
X132918031Y-114778596D01*
X132916096Y-114850866D01*
X132893878Y-114919663D01*
X132862084Y-114969136D01*
X132806970Y-115036291D01*
X132633699Y-115360458D01*
X132526999Y-115712199D01*
X132490972Y-116078000D01*
X132526999Y-116443800D01*
X132633699Y-116795541D01*
X132806970Y-117119708D01*
X132862084Y-117186864D01*
X132899528Y-117248708D01*
X132918031Y-117318596D01*
X132916096Y-117390866D01*
X132893878Y-117459663D01*
X132862084Y-117509136D01*
X132806970Y-117576291D01*
X132633699Y-117900458D01*
X132526999Y-118252199D01*
X132490972Y-118618000D01*
X132526999Y-118983800D01*
X132633699Y-119335541D01*
X132806970Y-119659708D01*
X132862084Y-119726864D01*
X132899528Y-119788708D01*
X132918031Y-119858596D01*
X132916096Y-119930866D01*
X132893878Y-119999663D01*
X132862084Y-120049136D01*
X132806970Y-120116291D01*
X132633699Y-120440458D01*
X132526999Y-120792199D01*
X132490972Y-121158000D01*
X132526999Y-121523800D01*
X132633699Y-121875541D01*
X132806970Y-122199708D01*
X132869407Y-122275787D01*
X132906850Y-122337631D01*
X132925354Y-122407519D01*
X132923419Y-122479789D01*
X132901201Y-122548586D01*
X132881776Y-122581679D01*
X132736906Y-122790556D01*
X132614124Y-123073017D01*
X132705439Y-123190000D01*
X134016542Y-123190000D01*
X134075852Y-123172585D01*
X134112000Y-123170000D01*
X134620000Y-123170000D01*
X134691560Y-123180289D01*
X134757323Y-123210322D01*
X134811960Y-123257665D01*
X134815832Y-123263690D01*
X134831960Y-123277665D01*
X134871047Y-123338485D01*
X134891415Y-123407852D01*
X134894000Y-123444000D01*
X134894000Y-123952000D01*
X134883711Y-124023560D01*
X134874000Y-124044824D01*
X134874000Y-125360465D01*
X134987210Y-125447893D01*
X135216392Y-125357588D01*
X135492689Y-125179826D01*
X135558437Y-125149760D01*
X135629992Y-125139435D01*
X135701557Y-125149688D01*
X135767335Y-125179687D01*
X135791256Y-125197091D01*
X135864288Y-125257027D01*
X136188458Y-125430300D01*
X136540199Y-125537000D01*
X136814337Y-125564000D01*
X136997663Y-125564000D01*
X137271800Y-125537000D01*
X137623541Y-125430300D01*
X137947708Y-125257029D01*
X138231844Y-125023844D01*
X138465029Y-124739708D01*
X138601734Y-124483952D01*
X138644541Y-124425692D01*
X138702028Y-124381852D01*
X138769538Y-124355983D01*
X138841600Y-124350183D01*
X138912378Y-124364919D01*
X138976138Y-124398999D01*
X139027713Y-124449662D01*
X139034456Y-124458931D01*
X139168241Y-124651826D01*
X139351419Y-124828758D01*
X139395742Y-124885874D01*
X139422178Y-124953163D01*
X139428585Y-125025174D01*
X139414445Y-125096074D01*
X139380903Y-125160118D01*
X139330676Y-125212118D01*
X139294691Y-125235459D01*
X139171807Y-125301141D01*
X139017103Y-125428103D01*
X138890140Y-125582809D01*
X138795798Y-125759310D01*
X138737701Y-125950829D01*
X138716856Y-126162479D01*
X138716856Y-127837520D01*
X138737701Y-128049170D01*
X138795798Y-128240689D01*
X138890140Y-128417191D01*
X138898460Y-128427329D01*
X138935904Y-128489173D01*
X138954407Y-128559061D01*
X138952470Y-128631331D01*
X138935058Y-128689720D01*
X138837124Y-128915017D01*
X138928439Y-129032000D01*
X140239542Y-129032000D01*
X140298852Y-129014585D01*
X140335000Y-129012000D01*
X140843000Y-129012000D01*
X140914560Y-129022289D01*
X140935824Y-129032000D01*
X142249561Y-129032000D01*
X142340875Y-128915017D01*
X142242942Y-128689720D01*
X142223850Y-128619991D01*
X142225177Y-128547707D01*
X142246815Y-128478725D01*
X142279540Y-128427329D01*
X142287859Y-128417191D01*
X142382201Y-128240689D01*
X142440298Y-128049170D01*
X142461144Y-127837520D01*
X142461144Y-126162479D01*
X142440298Y-125950829D01*
X142382201Y-125759310D01*
X142287859Y-125582809D01*
X142160896Y-125428103D01*
X142006192Y-125301141D01*
X141883309Y-125235459D01*
X141825049Y-125192652D01*
X141781209Y-125135165D01*
X141755341Y-125067656D01*
X141749540Y-124995593D01*
X141764276Y-124924815D01*
X141798356Y-124861055D01*
X141826581Y-124828758D01*
X142009756Y-124651828D01*
X142218094Y-124351440D01*
X142340875Y-124068982D01*
X142249561Y-123952000D01*
X140938458Y-123952000D01*
X140879148Y-123969415D01*
X140843000Y-123972000D01*
X140335000Y-123972000D01*
X140263440Y-123961711D01*
X140197677Y-123931678D01*
X140143040Y-123884335D01*
X140139167Y-123878309D01*
X140123040Y-123864335D01*
X140083953Y-123803515D01*
X140063585Y-123734148D01*
X140061000Y-123698000D01*
X140061000Y-123190000D01*
X140071289Y-123118440D01*
X140101322Y-123052677D01*
X140148665Y-122998040D01*
X140154690Y-122994167D01*
X140168665Y-122978040D01*
X140229485Y-122938953D01*
X140298852Y-122918585D01*
X140335000Y-122916000D01*
X140843000Y-122916000D01*
X140914560Y-122926289D01*
X140935824Y-122936000D01*
X142249561Y-122936000D01*
X142340875Y-122819017D01*
X142242942Y-122593720D01*
X142223850Y-122523991D01*
X142225177Y-122451707D01*
X142246815Y-122382725D01*
X142279540Y-122331329D01*
X142287859Y-122321191D01*
X142382201Y-122144689D01*
X142440298Y-121953170D01*
X142461144Y-121741520D01*
X142461144Y-120066479D01*
X142440298Y-119854829D01*
X142382201Y-119663310D01*
X142287859Y-119486809D01*
X142160896Y-119332103D01*
X142006191Y-119205140D01*
X141894080Y-119145216D01*
X141835820Y-119102409D01*
X141791979Y-119044923D01*
X141766111Y-118977413D01*
X141760309Y-118905350D01*
X141775046Y-118834572D01*
X141809126Y-118770813D01*
X141852679Y-118724863D01*
X141914842Y-118673846D01*
X142148029Y-118389708D01*
X142321300Y-118065541D01*
X142428000Y-117713800D01*
X142464027Y-117348000D01*
X142428000Y-116982199D01*
X142321300Y-116630458D01*
X142148029Y-116306291D01*
X142092916Y-116239136D01*
X142055472Y-116177292D01*
X142036969Y-116107404D01*
X142038904Y-116035134D01*
X142061122Y-115966337D01*
X142092916Y-115916864D01*
X142148029Y-115849708D01*
X142321300Y-115525541D01*
X142428000Y-115173800D01*
X142464027Y-114808000D01*
X142428000Y-114442199D01*
X142321300Y-114090458D01*
X142148029Y-113766291D01*
X142092916Y-113699136D01*
X142055472Y-113637292D01*
X142036969Y-113567404D01*
X142038904Y-113495134D01*
X142061122Y-113426337D01*
X142092916Y-113376864D01*
X142148029Y-113309708D01*
X142321300Y-112985541D01*
X142428000Y-112633800D01*
X142464027Y-112268000D01*
X142428000Y-111902199D01*
X142321300Y-111550458D01*
X142148029Y-111226291D01*
X142092916Y-111159136D01*
X142055472Y-111097292D01*
X142036969Y-111027404D01*
X142038904Y-110955134D01*
X142061122Y-110886337D01*
X142092916Y-110836864D01*
X142148029Y-110769708D01*
X142321300Y-110445541D01*
X142428000Y-110093800D01*
X142464027Y-109728000D01*
X142428000Y-109362199D01*
X142321300Y-109010458D01*
X142148029Y-108686291D01*
X142092916Y-108619136D01*
X142055472Y-108557292D01*
X142036969Y-108487404D01*
X142038904Y-108415134D01*
X142061122Y-108346337D01*
X142092916Y-108296864D01*
X142148029Y-108229708D01*
X142321300Y-107905541D01*
X142428000Y-107553800D01*
X142464027Y-107188000D01*
X142428000Y-106822199D01*
X142321299Y-106470455D01*
X142256934Y-106350036D01*
X142232275Y-106282076D01*
X142227761Y-106209921D01*
X142243759Y-106139417D01*
X142278971Y-106076276D01*
X142284596Y-106069168D01*
X142287859Y-106065190D01*
X142382201Y-105888689D01*
X142440298Y-105697170D01*
X142461144Y-105485520D01*
X142461144Y-103810479D01*
X142440298Y-103598829D01*
X142382201Y-103407310D01*
X142287859Y-103230809D01*
X142160896Y-103076103D01*
X142006191Y-102949140D01*
X141894080Y-102889216D01*
X141835820Y-102846409D01*
X141791979Y-102788923D01*
X141766111Y-102721413D01*
X141760309Y-102649350D01*
X141775046Y-102578572D01*
X141809126Y-102514813D01*
X141852679Y-102468863D01*
X141914842Y-102417846D01*
X142148029Y-102133708D01*
X142321300Y-101809541D01*
X142428000Y-101457800D01*
X142464027Y-101092000D01*
X142428000Y-100726199D01*
X142321300Y-100374458D01*
X142148029Y-100050291D01*
X142092916Y-99983136D01*
X142055472Y-99921292D01*
X142036969Y-99851404D01*
X142038904Y-99779134D01*
X142061122Y-99710337D01*
X142092916Y-99660864D01*
X142148029Y-99593708D01*
X142321300Y-99269541D01*
X142428000Y-98917800D01*
X142464027Y-98552000D01*
X142428000Y-98186199D01*
X142321300Y-97834458D01*
X142256934Y-97714038D01*
X142232275Y-97646078D01*
X142227761Y-97573923D01*
X142243758Y-97503419D01*
X142278971Y-97440278D01*
X142284597Y-97433168D01*
X142287859Y-97429192D01*
X142382203Y-97252687D01*
X142440299Y-97061171D01*
X142460869Y-96852315D01*
X142457310Y-96691020D01*
X142286290Y-96520000D01*
X140938458Y-96520000D01*
X140879148Y-96537415D01*
X140843000Y-96540000D01*
X140335000Y-96540000D01*
X140263440Y-96529711D01*
X140197677Y-96499678D01*
X140143040Y-96452335D01*
X140139167Y-96446309D01*
X140123040Y-96432335D01*
X140083953Y-96371515D01*
X140063585Y-96302148D01*
X140061000Y-96266000D01*
X140061000Y-95758000D01*
X140071289Y-95686440D01*
X140081000Y-95665175D01*
X140081000Y-94302822D01*
X140073070Y-94292229D01*
X140047805Y-94224492D01*
X140042647Y-94152380D01*
X140058015Y-94081736D01*
X140081000Y-94039642D01*
X140081000Y-94038177D01*
X141097000Y-94038177D01*
X141104930Y-94048771D01*
X141130195Y-94116508D01*
X141135353Y-94188620D01*
X141119985Y-94259264D01*
X141097000Y-94301357D01*
X141097000Y-95504000D01*
X142286290Y-95504000D01*
X142457310Y-95332979D01*
X142460869Y-95171684D01*
X142440299Y-94962828D01*
X142382203Y-94771312D01*
X142287861Y-94594810D01*
X142160896Y-94440103D01*
X142071631Y-94366845D01*
X142022842Y-94313494D01*
X141991059Y-94248559D01*
X141978858Y-94177300D01*
X141987227Y-94105490D01*
X142015489Y-94038947D01*
X142061353Y-93983061D01*
X142071631Y-93974155D01*
X142160896Y-93900896D01*
X142287861Y-93746189D01*
X142382203Y-93569687D01*
X142440299Y-93378171D01*
X142460869Y-93169315D01*
X142457310Y-93008020D01*
X142286290Y-92837000D01*
X141097000Y-92837000D01*
X141097000Y-94038177D01*
X140081000Y-94038177D01*
X140081000Y-92678458D01*
X140063585Y-92619148D01*
X140061000Y-92583000D01*
X140061000Y-92075000D01*
X140071289Y-92003440D01*
X140101322Y-91937677D01*
X140148665Y-91883040D01*
X140154690Y-91879167D01*
X140168665Y-91863040D01*
X140229485Y-91823953D01*
X140298852Y-91803585D01*
X140335000Y-91801000D01*
X140843000Y-91801000D01*
X140914560Y-91811289D01*
X140935824Y-91821000D01*
X142286290Y-91821000D01*
X142457310Y-91649979D01*
X142460869Y-91488684D01*
X142440299Y-91279828D01*
X142382203Y-91088312D01*
X142287859Y-90911807D01*
X142284597Y-90907832D01*
X142247153Y-90845988D01*
X142228650Y-90776100D01*
X142230585Y-90703830D01*
X142252803Y-90635033D01*
X142256934Y-90626962D01*
X142321300Y-90506541D01*
X142428000Y-90154800D01*
X142464027Y-89789000D01*
X142428000Y-89423199D01*
X142321300Y-89071458D01*
X142148029Y-88747291D01*
X142092916Y-88680136D01*
X142055472Y-88618292D01*
X142036969Y-88548404D01*
X142038904Y-88476134D01*
X142061122Y-88407337D01*
X142092916Y-88357864D01*
X142148029Y-88290708D01*
X142321300Y-87966541D01*
X142428000Y-87614800D01*
X142464027Y-87249000D01*
X142428000Y-86883199D01*
X142321300Y-86531458D01*
X142148029Y-86207291D01*
X141914844Y-85923155D01*
X141611371Y-85674101D01*
X141611486Y-85673960D01*
X141581874Y-85652203D01*
X141538034Y-85594717D01*
X141512164Y-85527208D01*
X141506362Y-85455145D01*
X141521098Y-85384367D01*
X141555177Y-85320607D01*
X141605839Y-85269031D01*
X141624984Y-85256727D01*
X141914844Y-85018844D01*
X142148029Y-84734708D01*
X142321300Y-84410541D01*
X142428000Y-84058800D01*
X142464027Y-83693000D01*
X142428000Y-83327199D01*
X142321300Y-82975458D01*
X142148029Y-82651291D01*
X142092916Y-82584136D01*
X142055472Y-82522292D01*
X142036969Y-82452404D01*
X142038904Y-82380134D01*
X142061122Y-82311337D01*
X142092916Y-82261864D01*
X142148029Y-82194708D01*
X142321300Y-81870541D01*
X142428000Y-81518800D01*
X142464027Y-81153000D01*
X142428000Y-80787199D01*
X142321300Y-80435458D01*
X142256934Y-80315038D01*
X142232275Y-80247078D01*
X142227761Y-80174923D01*
X142243758Y-80104419D01*
X142278971Y-80041278D01*
X142284597Y-80034168D01*
X142287859Y-80030192D01*
X142382203Y-79853687D01*
X142440299Y-79662171D01*
X142460869Y-79453315D01*
X142457310Y-79292020D01*
X142286290Y-79121000D01*
X140938458Y-79121000D01*
X140879148Y-79138415D01*
X140843000Y-79141000D01*
X140335000Y-79141000D01*
X140263440Y-79130711D01*
X140197677Y-79100678D01*
X140143040Y-79053335D01*
X140139167Y-79047309D01*
X140123040Y-79033335D01*
X140083953Y-78972515D01*
X140063585Y-78903148D01*
X140061000Y-78867000D01*
X140061000Y-78359000D01*
X140071289Y-78287440D01*
X140101322Y-78221677D01*
X140148665Y-78167040D01*
X140154690Y-78163167D01*
X140168665Y-78147040D01*
X140229485Y-78107953D01*
X140298852Y-78087585D01*
X140335000Y-78085000D01*
X140843000Y-78085000D01*
X140914560Y-78095289D01*
X140935824Y-78105000D01*
X142286290Y-78105000D01*
X142457310Y-77933979D01*
X142460869Y-77772684D01*
X142440299Y-77563828D01*
X142382203Y-77372312D01*
X142287861Y-77195810D01*
X142160896Y-77041103D01*
X142006189Y-76914138D01*
X141894080Y-76854215D01*
X141835820Y-76811408D01*
X141791980Y-76753921D01*
X141766111Y-76686411D01*
X141760311Y-76614349D01*
X141775047Y-76543571D01*
X141809127Y-76479811D01*
X141852680Y-76433862D01*
X141914842Y-76382846D01*
X142148029Y-76098708D01*
X142321300Y-75774541D01*
X142428000Y-75422800D01*
X142464027Y-75057000D01*
X142428000Y-74691199D01*
X142321300Y-74339458D01*
X142148029Y-74015291D01*
X142092916Y-73948136D01*
X142055472Y-73886292D01*
X142036969Y-73816404D01*
X142038904Y-73744134D01*
X142061122Y-73675337D01*
X142092916Y-73625864D01*
X142148029Y-73558708D01*
X142321300Y-73234541D01*
X142428000Y-72882800D01*
X142464027Y-72517000D01*
X142428000Y-72151199D01*
X142321300Y-71799458D01*
X142256934Y-71679038D01*
X142232275Y-71611078D01*
X142227761Y-71538923D01*
X142243758Y-71468419D01*
X142278971Y-71405278D01*
X142284597Y-71398168D01*
X142287859Y-71394192D01*
X142382203Y-71217687D01*
X142440299Y-71026171D01*
X142460869Y-70817315D01*
X142457310Y-70656020D01*
X142286290Y-70485000D01*
X140938458Y-70485000D01*
X140879148Y-70502415D01*
X140843000Y-70505000D01*
X140335000Y-70505000D01*
X140263440Y-70494711D01*
X140242176Y-70485000D01*
X138891710Y-70485000D01*
X138720689Y-70656020D01*
X138717130Y-70817315D01*
X138737700Y-71026171D01*
X138795797Y-71217690D01*
X138812109Y-71248207D01*
X138836768Y-71316167D01*
X138841282Y-71388322D01*
X138825284Y-71458826D01*
X138790072Y-71521967D01*
X138749237Y-71564285D01*
X138576206Y-71706287D01*
X138548393Y-71740179D01*
X138531654Y-71758648D01*
X137925644Y-72364658D01*
X137907175Y-72381397D01*
X137873288Y-72409206D01*
X137845479Y-72443093D01*
X137845477Y-72443094D01*
X137845478Y-72443095D01*
X137760861Y-72546201D01*
X137707510Y-72594991D01*
X137642575Y-72626773D01*
X137571316Y-72638974D01*
X137499506Y-72630605D01*
X137432963Y-72602343D01*
X137403381Y-72581410D01*
X137301539Y-72497831D01*
X137156600Y-72420359D01*
X137098339Y-72377551D01*
X137054499Y-72320064D01*
X137028631Y-72252555D01*
X137022831Y-72180492D01*
X137037567Y-72109714D01*
X137071648Y-72045955D01*
X137096730Y-72016746D01*
X137279604Y-71833871D01*
X137511174Y-71487301D01*
X137670683Y-71102212D01*
X137752000Y-70693410D01*
X137752000Y-70276589D01*
X137670683Y-69867787D01*
X137511174Y-69482698D01*
X137279604Y-69136128D01*
X136984871Y-68841395D01*
X136638301Y-68609825D01*
X136579973Y-68585665D01*
X136517798Y-68548775D01*
X136468534Y-68495862D01*
X136436173Y-68431213D01*
X136423337Y-68360066D01*
X136431065Y-68288184D01*
X136458731Y-68221391D01*
X136504095Y-68165099D01*
X136563480Y-68123867D01*
X136632077Y-68101036D01*
X136677175Y-68097000D01*
X138732919Y-68097000D01*
X138804479Y-68107289D01*
G37*
G04 #@! TD.AperFunction*
G04 #@! TA.AperFunction,Conductor*
G36*
X138703344Y-122143379D02*
G01*
X138769887Y-122171641D01*
X138825773Y-122217505D01*
X138862342Y-122269184D01*
X138890141Y-122321192D01*
X138898460Y-122331329D01*
X138935904Y-122393173D01*
X138954407Y-122463061D01*
X138952470Y-122535331D01*
X138935059Y-122593718D01*
X138918624Y-122631528D01*
X138880661Y-122693055D01*
X138826902Y-122741394D01*
X138761702Y-122772629D01*
X138690343Y-122784230D01*
X138618606Y-122775257D01*
X138552303Y-122746437D01*
X138496805Y-122700104D01*
X138472236Y-122665073D01*
X138409916Y-122589136D01*
X138372472Y-122527292D01*
X138353969Y-122457404D01*
X138355904Y-122385134D01*
X138378122Y-122316337D01*
X138409916Y-122266864D01*
X138441989Y-122227783D01*
X138495340Y-122178993D01*
X138560275Y-122147211D01*
X138631534Y-122135010D01*
X138703344Y-122143379D01*
G37*
G04 #@! TD.AperFunction*
G04 #@! TA.AperFunction,Conductor*
G36*
X137231560Y-115560289D02*
G01*
X137297323Y-115590322D01*
X137351960Y-115637665D01*
X137355832Y-115643690D01*
X137371960Y-115657665D01*
X137411047Y-115718485D01*
X137431415Y-115787852D01*
X137434000Y-115824000D01*
X137434000Y-116332000D01*
X137423711Y-116403560D01*
X137393678Y-116469323D01*
X137346335Y-116523960D01*
X137340309Y-116527832D01*
X137326335Y-116543960D01*
X137265515Y-116583047D01*
X137196148Y-116603415D01*
X137160000Y-116606000D01*
X136652000Y-116606000D01*
X136580440Y-116595711D01*
X136514677Y-116565678D01*
X136460040Y-116518335D01*
X136456167Y-116512309D01*
X136440040Y-116498335D01*
X136400953Y-116437515D01*
X136380585Y-116368148D01*
X136378000Y-116332000D01*
X136378000Y-115824000D01*
X136388289Y-115752440D01*
X136418322Y-115686677D01*
X136465665Y-115632040D01*
X136471690Y-115628167D01*
X136485665Y-115612040D01*
X136546485Y-115572953D01*
X136615852Y-115552585D01*
X136652000Y-115550000D01*
X137160000Y-115550000D01*
X137231560Y-115560289D01*
G37*
G04 #@! TD.AperFunction*
G04 #@! TA.AperFunction,Conductor*
G36*
X138799781Y-111008291D02*
G01*
X138865544Y-111038324D01*
X138920181Y-111085667D01*
X138959268Y-111146487D01*
X138979636Y-111215854D01*
X138979636Y-111288150D01*
X138959268Y-111357517D01*
X138952229Y-111371737D01*
X138936904Y-111400408D01*
X138894097Y-111458668D01*
X138836610Y-111502508D01*
X138769100Y-111528377D01*
X138697037Y-111534177D01*
X138626259Y-111519441D01*
X138562500Y-111485361D01*
X138512673Y-111436963D01*
X138490293Y-111408292D01*
X138454371Y-111345552D01*
X138437581Y-111275233D01*
X138441281Y-111203032D01*
X138465174Y-111134798D01*
X138507322Y-111076059D01*
X138564311Y-111031574D01*
X138631525Y-111004947D01*
X138690516Y-110998002D01*
X138728221Y-110998002D01*
X138799781Y-111008291D01*
G37*
G04 #@! TD.AperFunction*
G04 #@! TA.AperFunction,Conductor*
G36*
X137231560Y-110480289D02*
G01*
X137297323Y-110510322D01*
X137351960Y-110557665D01*
X137355832Y-110563690D01*
X137371960Y-110577665D01*
X137411047Y-110638485D01*
X137431415Y-110707852D01*
X137434000Y-110744000D01*
X137434000Y-111252000D01*
X137423711Y-111323560D01*
X137393678Y-111389323D01*
X137346335Y-111443960D01*
X137340309Y-111447832D01*
X137326335Y-111463960D01*
X137265515Y-111503047D01*
X137196148Y-111523415D01*
X137160000Y-111526000D01*
X136652000Y-111526000D01*
X136580440Y-111515711D01*
X136514677Y-111485678D01*
X136460040Y-111438335D01*
X136456167Y-111432309D01*
X136440040Y-111418335D01*
X136400953Y-111357515D01*
X136380585Y-111288148D01*
X136378000Y-111252000D01*
X136378000Y-110744000D01*
X136388289Y-110672440D01*
X136418322Y-110606677D01*
X136465665Y-110552040D01*
X136471690Y-110548167D01*
X136485665Y-110532040D01*
X136546485Y-110492953D01*
X136615852Y-110472585D01*
X136652000Y-110470000D01*
X137160000Y-110470000D01*
X137231560Y-110480289D01*
G37*
G04 #@! TD.AperFunction*
G04 #@! TA.AperFunction,Conductor*
G36*
X137231560Y-97780289D02*
G01*
X137297323Y-97810322D01*
X137351960Y-97857665D01*
X137355832Y-97863690D01*
X137371960Y-97877665D01*
X137411047Y-97938485D01*
X137431415Y-98007852D01*
X137434000Y-98044000D01*
X137434000Y-98552000D01*
X137423711Y-98623560D01*
X137393678Y-98689323D01*
X137346335Y-98743960D01*
X137340309Y-98747832D01*
X137326335Y-98763960D01*
X137265515Y-98803047D01*
X137196148Y-98823415D01*
X137160000Y-98826000D01*
X136652000Y-98826000D01*
X136580440Y-98815711D01*
X136514677Y-98785678D01*
X136460040Y-98738335D01*
X136456167Y-98732309D01*
X136440040Y-98718335D01*
X136400953Y-98657515D01*
X136380585Y-98588148D01*
X136378000Y-98552000D01*
X136378000Y-98044000D01*
X136388289Y-97972440D01*
X136418322Y-97906677D01*
X136465665Y-97852040D01*
X136471690Y-97848167D01*
X136485665Y-97832040D01*
X136546485Y-97792953D01*
X136615852Y-97772585D01*
X136652000Y-97770000D01*
X137160000Y-97770000D01*
X137231560Y-97780289D01*
G37*
G04 #@! TD.AperFunction*
G04 #@! TA.AperFunction,Conductor*
G36*
X138665061Y-91658600D02*
G01*
X138733669Y-91681397D01*
X138793074Y-91722599D01*
X138799691Y-91728981D01*
X138966103Y-91895393D01*
X139009428Y-91953269D01*
X139034693Y-92021006D01*
X139039851Y-92093118D01*
X139024483Y-92163762D01*
X138989835Y-92227215D01*
X138938715Y-92278335D01*
X138875262Y-92312983D01*
X138804618Y-92328351D01*
X138786498Y-92328998D01*
X138698894Y-92328998D01*
X138627334Y-92318709D01*
X138561571Y-92288676D01*
X138506934Y-92241333D01*
X138474885Y-92194731D01*
X138465028Y-92176291D01*
X138402593Y-92100213D01*
X138365150Y-92038369D01*
X138346646Y-91968481D01*
X138348581Y-91896211D01*
X138370799Y-91827414D01*
X138390226Y-91794318D01*
X138411374Y-91763827D01*
X138460611Y-91710890D01*
X138522769Y-91673969D01*
X138592810Y-91656055D01*
X138665061Y-91658600D01*
G37*
G04 #@! TD.AperFunction*
G04 #@! TA.AperFunction,Conductor*
G36*
X137231560Y-90160289D02*
G01*
X137297323Y-90190322D01*
X137351960Y-90237665D01*
X137355832Y-90243690D01*
X137371960Y-90257665D01*
X137411047Y-90318485D01*
X137431415Y-90387852D01*
X137434000Y-90424000D01*
X137434000Y-90932000D01*
X137423711Y-91003560D01*
X137393678Y-91069323D01*
X137346335Y-91123960D01*
X137340309Y-91127832D01*
X137326335Y-91143960D01*
X137265515Y-91183047D01*
X137196148Y-91203415D01*
X137160000Y-91206000D01*
X136652000Y-91206000D01*
X136580440Y-91195711D01*
X136514677Y-91165678D01*
X136460040Y-91118335D01*
X136456167Y-91112309D01*
X136440040Y-91098335D01*
X136400953Y-91037515D01*
X136380585Y-90968148D01*
X136378000Y-90932000D01*
X136378000Y-90424000D01*
X136388289Y-90352440D01*
X136418322Y-90286677D01*
X136465665Y-90232040D01*
X136471690Y-90228167D01*
X136485665Y-90212040D01*
X136546485Y-90172953D01*
X136615852Y-90152585D01*
X136652000Y-90150000D01*
X137160000Y-90150000D01*
X137231560Y-90160289D01*
G37*
G04 #@! TD.AperFunction*
G04 #@! TA.AperFunction,Conductor*
G36*
X134691560Y-85080289D02*
G01*
X134757323Y-85110322D01*
X134811960Y-85157665D01*
X134815832Y-85163690D01*
X134831960Y-85177665D01*
X134871047Y-85238485D01*
X134891415Y-85307852D01*
X134894000Y-85344000D01*
X134894000Y-85852000D01*
X134883711Y-85923560D01*
X134853678Y-85989323D01*
X134806335Y-86043960D01*
X134800309Y-86047832D01*
X134786335Y-86063960D01*
X134725515Y-86103047D01*
X134656148Y-86123415D01*
X134620000Y-86126000D01*
X134112000Y-86126000D01*
X134040440Y-86115711D01*
X133974677Y-86085678D01*
X133920040Y-86038335D01*
X133916167Y-86032309D01*
X133900040Y-86018335D01*
X133860953Y-85957515D01*
X133840585Y-85888148D01*
X133838000Y-85852000D01*
X133838000Y-85344000D01*
X133848289Y-85272440D01*
X133878322Y-85206677D01*
X133925665Y-85152040D01*
X133931690Y-85148167D01*
X133945665Y-85132040D01*
X134006485Y-85092953D01*
X134075852Y-85072585D01*
X134112000Y-85070000D01*
X134620000Y-85070000D01*
X134691560Y-85080289D01*
G37*
G04 #@! TD.AperFunction*
G04 #@! TA.AperFunction,Conductor*
G36*
X137231560Y-80000289D02*
G01*
X137297323Y-80030322D01*
X137351960Y-80077665D01*
X137355832Y-80083690D01*
X137371960Y-80097665D01*
X137411047Y-80158485D01*
X137431415Y-80227852D01*
X137434000Y-80264000D01*
X137434000Y-80772000D01*
X137423711Y-80843560D01*
X137393678Y-80909323D01*
X137346335Y-80963960D01*
X137340309Y-80967832D01*
X137326335Y-80983960D01*
X137265515Y-81023047D01*
X137196148Y-81043415D01*
X137160000Y-81046000D01*
X136652000Y-81046000D01*
X136580440Y-81035711D01*
X136514677Y-81005678D01*
X136460040Y-80958335D01*
X136456167Y-80952309D01*
X136440040Y-80938335D01*
X136400953Y-80877515D01*
X136380585Y-80808148D01*
X136378000Y-80772000D01*
X136378000Y-80264000D01*
X136388289Y-80192440D01*
X136418322Y-80126677D01*
X136465665Y-80072040D01*
X136471690Y-80068167D01*
X136485665Y-80052040D01*
X136546485Y-80012953D01*
X136615852Y-79992585D01*
X136652000Y-79990000D01*
X137160000Y-79990000D01*
X137231560Y-80000289D01*
G37*
G04 #@! TD.AperFunction*
G04 #@! TA.AperFunction,Conductor*
G36*
X130373560Y-69586289D02*
G01*
X130439323Y-69616322D01*
X130493960Y-69663665D01*
X130497832Y-69669690D01*
X130513960Y-69683665D01*
X130553047Y-69744485D01*
X130573415Y-69813852D01*
X130576000Y-69850000D01*
X130576000Y-70358000D01*
X130565711Y-70429560D01*
X130556000Y-70450824D01*
X130556000Y-71801290D01*
X130727020Y-71972310D01*
X130888315Y-71975869D01*
X130931360Y-71971630D01*
X131003584Y-71974855D01*
X131071974Y-71998297D01*
X131130989Y-72040057D01*
X131175848Y-72096752D01*
X131202918Y-72163789D01*
X131209034Y-72199512D01*
X131217126Y-72281683D01*
X131296665Y-72543887D01*
X131361248Y-72664712D01*
X131361248Y-72664713D01*
X131425830Y-72785537D01*
X131554156Y-72941903D01*
X131554157Y-72941904D01*
X131599654Y-72997342D01*
X131643087Y-73032987D01*
X131661556Y-73049727D01*
X132521918Y-73910089D01*
X132565243Y-73967965D01*
X132590508Y-74035702D01*
X132595666Y-74107814D01*
X132580298Y-74178458D01*
X132574866Y-74190494D01*
X132514701Y-74388829D01*
X132493856Y-74600479D01*
X132493856Y-75440000D01*
X132483567Y-75511560D01*
X132453534Y-75577323D01*
X132406191Y-75631960D01*
X132345371Y-75671047D01*
X132276004Y-75691415D01*
X132239856Y-75694000D01*
X130997535Y-75694000D01*
X130925975Y-75683711D01*
X130860212Y-75653678D01*
X130805575Y-75606335D01*
X130766488Y-75545515D01*
X130746120Y-75476148D01*
X130744758Y-75415104D01*
X130780027Y-75056999D01*
X130744000Y-74691199D01*
X130637300Y-74339458D01*
X130464029Y-74015291D01*
X130230844Y-73731155D01*
X129927371Y-73482101D01*
X129928004Y-73481328D01*
X129902922Y-73462899D01*
X129859082Y-73405411D01*
X129858386Y-73404137D01*
X129819868Y-73357203D01*
X129819867Y-73357202D01*
X129743522Y-73264175D01*
X129743518Y-73264171D01*
X129715709Y-73230286D01*
X129681831Y-73202483D01*
X129663362Y-73185744D01*
X128873053Y-72395435D01*
X128829728Y-72337559D01*
X128804463Y-72269822D01*
X128799305Y-72197710D01*
X128814673Y-72127066D01*
X128849321Y-72063613D01*
X128900441Y-72012493D01*
X128963894Y-71977845D01*
X129034538Y-71962477D01*
X129077554Y-71963053D01*
X129207683Y-71975869D01*
X129368979Y-71972310D01*
X129540000Y-71801290D01*
X129540000Y-70453458D01*
X129522585Y-70394148D01*
X129520000Y-70358000D01*
X129520000Y-69850000D01*
X129530289Y-69778440D01*
X129560322Y-69712677D01*
X129607665Y-69658040D01*
X129613690Y-69654167D01*
X129627665Y-69638040D01*
X129688485Y-69598953D01*
X129757852Y-69578585D01*
X129794000Y-69576000D01*
X130302000Y-69576000D01*
X130373560Y-69586289D01*
G37*
G04 #@! TD.AperFunction*
M02*
